<svg width="24" height="24" viewBox="0 0 24 24" fill="none" xmlns="http://www.w3.org/2000/svg">
<path d="M6.43041 2.41301C6.55649 2.26254 6.61854 2.06863 6.60325 1.87292C6.58796 1.67721 6.49654 1.49529 6.34863 1.36622C6.20071 1.23716 6.00809 1.17123 5.81211 1.18259C5.61613 1.19396 5.43242 1.28171 5.30041 1.42701L4.00841 2.90701C3.27579 3.74658 2.86165 4.81698 2.83841 5.93101L2.78141 8.65001C2.77937 8.7485 2.79676 8.84643 2.83257 8.9382C2.86838 9.02997 2.92192 9.1138 2.99012 9.18488C3.05832 9.25596 3.13986 9.31292 3.23008 9.35249C3.32029 9.39206 3.41742 9.41347 3.51591 9.41551C3.6144 9.41754 3.71233 9.40016 3.8041 9.36435C3.89588 9.32854 3.9797 9.275 4.05078 9.2068C4.12186 9.13859 4.17882 9.05706 4.21839 8.96684C4.25796 8.87663 4.27937 8.7795 4.28141 8.68101L4.33741 5.96301C4.35345 5.20074 4.63699 4.46837 5.13841 3.89401L6.43041 2.41301Z" fill="#111827"/>
<path fill-rule="evenodd" clip-rule="evenodd" d="M6.23597 7.7C6.30313 6.63014 6.77549 5.62608 7.5569 4.89224C8.3383 4.15839 9.37 3.74993 10.442 3.75H10.999V3C10.999 2.73478 11.1043 2.48043 11.2919 2.29289C11.4794 2.10536 11.7338 2 11.999 2C12.2642 2 12.5185 2.10536 12.7061 2.29289C12.8936 2.48043 12.999 2.73478 12.999 3V3.75H13.556C14.6279 3.74993 15.6596 4.15839 16.4411 4.89224C17.2225 5.62608 17.6948 6.63014 17.762 7.7L17.983 11.234C18.0684 12.5812 18.5207 13.8794 19.291 14.988C19.4503 15.2171 19.5477 15.4835 19.5736 15.7613C19.5995 16.0392 19.5531 16.319 19.4389 16.5736C19.3246 16.8281 19.1464 17.0488 18.9216 17.2142C18.6968 17.3795 18.433 17.4838 18.156 17.517L14.749 17.925V19C14.749 19.7293 14.4592 20.4288 13.9435 20.9445C13.4278 21.4603 12.7283 21.75 11.999 21.75C11.2696 21.75 10.5702 21.4603 10.0544 20.9445C9.5387 20.4288 9.24897 19.7293 9.24897 19V17.925L5.84197 17.516C5.56507 17.4827 5.30148 17.3784 5.07682 17.2131C4.85216 17.0478 4.67406 16.8273 4.55983 16.5729C4.44559 16.3184 4.39911 16.0388 4.42489 15.7611C4.45068 15.4834 4.54785 15.2171 4.70697 14.988C5.47722 13.8794 5.92954 12.5812 6.01497 11.234L6.23597 7.7ZM10.442 5.25C9.75155 5.24992 9.08704 5.51297 8.58375 5.98561C8.08046 6.45825 7.77622 7.10493 7.73297 7.794L7.51297 11.328C7.41016 12.9487 6.86584 14.5105 5.93897 15.844C5.92744 15.8606 5.92039 15.8798 5.91851 15.8999C5.91663 15.92 5.91997 15.9403 5.92823 15.9587C5.93648 15.9771 5.94936 15.9931 5.96561 16.005C5.98186 16.017 6.00093 16.0246 6.02097 16.027L9.75797 16.476C11.247 16.654 12.751 16.654 14.24 16.476L17.977 16.027C17.997 16.0246 18.0161 16.017 18.0323 16.005C18.0486 15.9931 18.0615 15.9771 18.0697 15.9587C18.078 15.9403 18.0813 15.92 18.0794 15.8999C18.0776 15.8798 18.0705 15.8606 18.059 15.844C17.1325 14.5104 16.5885 12.9486 16.486 11.328L16.265 7.794C16.2217 7.10493 15.9175 6.45825 15.4142 5.98561C14.9109 5.51297 14.2464 5.24992 13.556 5.25H10.442ZM11.999 20.25C11.309 20.25 10.749 19.69 10.749 19V18.25H13.249V19C13.249 19.69 12.689 20.25 11.999 20.25Z" fill="#111827"/>
<path d="M17.6435 1.35502C17.4937 1.48579 17.402 1.67071 17.3885 1.86911C17.3749 2.06751 17.4408 2.26315 17.5715 2.41302L18.8635 3.89302C19.3648 4.46778 19.648 5.20052 19.6635 5.96302L19.7205 8.68002C19.7246 8.87893 19.8076 9.06806 19.9511 9.20581C20.0947 9.34355 20.2871 9.41863 20.486 9.41452C20.6849 9.41041 20.8741 9.32745 21.0118 9.18389C21.1495 9.04033 21.2246 8.84793 21.2205 8.64902L21.1635 5.93102C21.1403 4.81699 20.7261 3.74658 19.9935 2.90702L18.7015 1.42702C18.5707 1.2772 18.3858 1.18546 18.1874 1.17196C17.989 1.15846 17.7934 1.2243 17.6435 1.35502Z" fill="#111827"/>
</svg>
