<svg width="32" height="32" viewBox="0 0 32 32" fill="none" xmlns="http://www.w3.org/2000/svg">
<path fill-rule="evenodd" clip-rule="evenodd" d="M17.3328 3.99999C17.3328 3.64637 17.1923 3.30723 16.9423 3.05718C16.6922 2.80713 16.3531 2.66666 15.9995 2.66666C15.6459 2.66666 15.3067 2.80713 15.0567 3.05718C14.8066 3.30723 14.6662 3.64637 14.6662 3.99999V4.99999H13.9235C12.4942 4.9999 11.1186 5.54451 10.0767 6.52297C9.03485 7.50143 8.40503 8.84017 8.31549 10.2667L8.02082 14.9787C7.90691 16.7749 7.30381 18.5058 6.27682 19.984C6.06433 20.2894 5.9345 20.6446 5.89994 21.0151C5.86539 21.3855 5.92729 21.7586 6.07964 22.0981C6.23198 22.4375 6.46957 22.7318 6.76931 22.9522C7.06905 23.1726 7.42073 23.3117 7.79015 23.356L12.3328 23.9V25.3333C12.3328 26.3058 12.7191 27.2384 13.4068 27.926C14.0944 28.6137 15.027 29 15.9995 29C16.9719 29 17.9046 28.6137 18.5922 27.926C19.2798 27.2384 19.6662 26.3058 19.6662 25.3333V23.9L24.2088 23.3547C24.578 23.3103 24.9295 23.1711 25.229 22.9508C25.5286 22.7305 25.766 22.4364 25.9184 22.0971C26.0707 21.7579 26.1326 21.385 26.0983 21.0147C26.0639 20.6445 25.9343 20.2894 25.7222 19.984C24.6952 18.5058 24.0921 16.7749 23.9782 14.9787L23.6835 10.268C23.5943 8.84127 22.9646 7.5022 21.9227 6.52346C20.8808 5.54472 19.505 4.99992 18.0755 4.99999H17.3328V3.99999ZM13.9235 6.99999C13.0029 6.99988 12.1169 7.35062 11.4459 7.9808C10.7748 8.61098 10.3691 9.47323 10.3115 10.392L10.0182 15.104C9.88106 17.265 9.1553 19.3473 7.91949 21.1253C7.90411 21.1474 7.89471 21.1731 7.8922 21.1999C7.88969 21.2267 7.89415 21.2537 7.90516 21.2782C7.91616 21.3028 7.93334 21.3241 7.955 21.3401C7.97667 21.356 8.0021 21.3661 8.02882 21.3693L13.0115 21.968C14.9968 22.2053 17.0022 22.2053 18.9875 21.968L23.9702 21.3693C23.9969 21.3661 24.0223 21.356 24.044 21.3401C24.0656 21.3241 24.0828 21.3028 24.0938 21.2782C24.1048 21.2537 24.1093 21.2267 24.1068 21.1999C24.1043 21.1731 24.0949 21.1474 24.0795 21.1253C22.8441 19.3471 22.1188 17.2649 21.9822 15.104L21.6875 10.392C21.6298 9.47323 21.2242 8.61098 20.5531 7.9808C19.8821 7.35062 18.9961 6.99988 18.0755 6.99999H13.9235ZM15.9995 27C15.0795 27 14.3328 26.2533 14.3328 25.3333V24.3333H17.6662V25.3333C17.6662 26.2533 16.9195 27 15.9995 27Z" fill="#2563EB"/>
</svg>
