<svg width="16" height="16" viewBox="0 0 16 16" fill="none" xmlns="http://www.w3.org/2000/svg">
<g clip-path="url(#clip0_552_9468)">
<path d="M8.62797 12.8889C8.62831 12.8304 8.6171 12.7724 8.59498 12.7182C8.57286 12.6641 8.54027 12.6148 8.49908 12.5733L3.92575 7.99999L8.49908 3.42665C8.57189 3.34163 8.60994 3.23226 8.60562 3.12041C8.6013 3.00855 8.55493 2.90244 8.47578 2.82329C8.39662 2.74414 8.29052 2.69777 8.17866 2.69345C8.0668 2.68913 7.95744 2.72717 7.87241 2.79999L2.66797 7.99999L7.87241 13.2044C7.93481 13.2656 8.01384 13.307 8.09964 13.3235C8.18544 13.34 8.27419 13.3308 8.35481 13.2971C8.43543 13.2635 8.50434 13.2068 8.55292 13.1342C8.6015 13.0616 8.62761 12.9762 8.62797 12.8889Z" fill="#111827"/>
<path d="M13.5147 12.8889C13.515 12.8304 13.5038 12.7724 13.4817 12.7182C13.4596 12.6641 13.427 12.6148 13.3858 12.5733L8.81247 7.99999L13.3858 3.42665C13.4586 3.34163 13.4967 3.23226 13.4923 3.12041C13.488 3.00855 13.4416 2.90244 13.3625 2.82329C13.2833 2.74414 13.1772 2.69777 13.0654 2.69345C12.9535 2.68913 12.8442 2.72717 12.7591 2.79999L7.55469 7.99999L12.7591 13.2044C12.8215 13.2656 12.9006 13.307 12.9864 13.3235C13.0722 13.34 13.1609 13.3308 13.2415 13.2971C13.3221 13.2635 13.3911 13.2068 13.4396 13.1342C13.4882 13.0616 13.5143 12.9762 13.5147 12.8889Z" fill="#111827"/>
</g>
<defs>
<clipPath id="clip0_552_9468">
<rect width="16" height="16" fill="white" transform="matrix(0 1 1 0 0 0)"/>
</clipPath>
</defs>
</svg>
