<svg width="50" height="50" viewBox="0 0 50 50" fill="none" xmlns="http://www.w3.org/2000/svg">
<path d="M9.54877 36.0857C7.40242 33.8071 6.25 31.25 6.25 27.1048C6.25 19.8143 11.3677 13.2785 18.8137 10.0483L20.6735 12.9184C13.7251 16.6779 12.367 21.5542 11.8243 24.6292C12.943 24.0507 14.4075 23.8471 15.8431 23.9803C19.6023 24.3288 22.565 27.4146 22.565 31.25C22.565 35.2771 19.3003 38.5417 15.2732 38.5417C13.0377 38.5417 10.8999 37.5198 9.54877 36.0857ZM30.3821 36.0857C28.2358 33.8071 27.0833 31.25 27.0833 27.1048C27.0833 19.8143 32.201 13.2785 39.6471 10.0483L41.5069 12.9184C34.5583 16.6779 33.2004 21.5542 32.6575 24.6292C33.7762 24.0507 35.2408 23.8471 36.6765 23.9803C40.4356 24.3288 43.3983 27.4146 43.3983 31.25C43.3983 35.2771 40.1337 38.5417 36.1067 38.5417C33.871 38.5417 31.7333 37.5198 30.3821 36.0857Z" fill="#2563EB" fill-opacity="0.1"/>
</svg>
