<svg width="15" height="15" viewBox="0 0 15 15" fill="none" xmlns="http://www.w3.org/2000/svg">
<g clip-path="url(#clip0_462_2227)">
<path d="M0 10L1.11328 1.09375C1.19141 0.46875 1.72266 0 2.35547 0H8.94141C9.52734 0 10 0.472656 10 1.05859C10 1.18359 9.97656 1.3125 9.93359 1.42969L8.125 6.25H13.5664C14.3555 6.25 15 6.89062 15 7.68359C15 7.97266 14.9141 8.25391 14.75 8.49219L7.24219 19.4688C7.01172 19.8047 6.63281 20.0039 6.23047 20.0039H6.11719C5.50391 20.0039 5.00391 19.5039 5.00391 18.8906C5.00391 18.8008 5.01562 18.7109 5.03906 18.6211L6.875 11.25H1.25C0.558594 11.25 0 10.6914 0 10Z" fill="#2563EB"/>
</g>
<defs>
<clipPath id="clip0_462_2227">
<rect width="15" height="15" fill="white"/>
</clipPath>
</defs>
</svg>
