<svg width="20" height="20" viewBox="0 0 20 20" fill="none" xmlns="http://www.w3.org/2000/svg">
<path d="M9.99935 17.5C14.6017 17.5 18.3327 13.769 18.3327 9.16668C18.3327 4.5643 14.6017 0.833344 9.99935 0.833344C5.39698 0.833344 1.66602 4.5643 1.66602 9.16668C1.66602 13.769 5.39698 17.5 9.99935 17.5Z" fill="#FFF59D"/>
<path d="M15.4166 9.16666C15.4166 5.95833 12.6666 3.41666 9.37489 3.79166C6.87489 4.08333 4.87489 6.08333 4.62489 8.58333C4.41655 10.5 5.20822 12.2083 6.54155 13.2917C7.12489 13.7917 7.49989 14.5 7.49989 15.2917V15.4167H12.4999V15.375C12.4999 14.625 12.8332 13.875 13.4166 13.375C14.6249 12.375 15.4166 10.875 15.4166 9.16666Z" fill="#FBC02D"/>
<path d="M12.75 8.41668L11.5 7.58334C11.375 7.50001 11.1667 7.50001 11.0417 7.58334L10 8.25001L9 7.58334C8.875 7.50001 8.66667 7.50001 8.54167 7.58334L7.29167 8.41668C7.20833 8.50001 7.125 8.58334 7.125 8.70834C7.125 8.83334 7.125 8.95834 7.20833 9.04168L8.79167 11V15.4167H9.625V10.8333C9.625 10.75 9.58333 10.6667 9.54167 10.5833L8.16667 8.87501L8.79167 8.45834L9.79167 9.12501C9.91667 9.20834 10.125 9.20834 10.25 9.12501L11.25 8.45834L11.875 8.87501L10.5 10.5833C10.4583 10.6667 10.4167 10.75 10.4167 10.8333V15.4167H11.25V11L12.8333 9.04168C12.9167 8.95834 12.9583 8.83334 12.9167 8.70834C12.875 8.58334 12.8333 8.45834 12.75 8.41668Z" fill="#FFF59D"/>
<path d="M10 19.5833C10.6904 19.5833 11.25 19.0237 11.25 18.3333C11.25 17.643 10.6904 17.0833 10 17.0833C9.30964 17.0833 8.75 17.643 8.75 18.3333C8.75 19.0237 9.30964 19.5833 10 19.5833Z" fill="#5C6BC0"/>
<path d="M10.8333 18.75H9.16667C8.25 18.75 7.5 18 7.5 17.0833V15H12.5V17.0833C12.5 18 11.75 18.75 10.8333 18.75Z" fill="#9FA8DA"/>
<path d="M12.5 17.0833L7.66667 17.75C7.79167 18.0417 8.04167 18.3333 8.33333 18.5L12.25 17.9583C12.4167 17.7083 12.5 17.4167 12.5 17.0833ZM7.5 16.125V16.9583L12.5 16.25V15.4167L7.5 16.125Z" fill="#5C6BC0"/>
</svg>
