<svg width="20" height="20" viewBox="0 0 20 20" fill="none" xmlns="http://www.w3.org/2000/svg">
<path d="M18.1716 8.36794H17.5003V8.33335H10.0003V11.6667H14.7099C14.0228 13.6071 12.1766 15 10.0003 15C7.23908 15 5.00033 12.7613 5.00033 10C5.00033 7.23877 7.23908 5.00002 10.0003 5.00002C11.2749 5.00002 12.4345 5.48085 13.3174 6.26627L15.6745 3.90919C14.1862 2.5221 12.1953 1.66669 10.0003 1.66669C5.39824 1.66669 1.66699 5.39794 1.66699 10C1.66699 14.6021 5.39824 18.3334 10.0003 18.3334C14.6024 18.3334 18.3337 14.6021 18.3337 10C18.3337 9.44127 18.2762 8.89585 18.1716 8.36794Z" fill="#FFC107"/>
<path d="M2.62793 6.12127L5.36585 8.12919C6.10668 6.29502 7.90085 5.00002 10.0004 5.00002C11.275 5.00002 12.4346 5.48085 13.3175 6.26627L15.6746 3.90919C14.1863 2.5221 12.1954 1.66669 10.0004 1.66669C6.7996 1.66669 4.02376 3.47377 2.62793 6.12127Z" fill="#FF3D00"/>
<path d="M9.9998 18.3333C12.1523 18.3333 14.1081 17.5096 15.5869 16.17L13.0077 13.9875C12.1431 14.6454 11.0863 15.0012 9.9998 15C7.8323 15 5.99189 13.6179 5.29855 11.6891L2.58105 13.7829C3.96022 16.4816 6.76105 18.3333 9.9998 18.3333Z" fill="#4CAF50"/>
<path d="M18.1712 8.3679H17.5V8.33331H10V11.6666H14.7096C14.3809 12.5902 13.7889 13.3971 13.0067 13.9879L13.0079 13.9871L15.5871 16.1696C15.4046 16.3354 18.3333 14.1666 18.3333 9.99998C18.3333 9.44123 18.2758 8.89581 18.1712 8.3679Z" fill="#1976D2"/>
</svg>
