<svg width="15" height="15" viewBox="0 0 15 15" fill="none" xmlns="http://www.w3.org/2000/svg">
<path d="M3.75 5.25C3.75 5.05109 3.82902 4.86032 3.96967 4.71967C4.11032 4.57902 4.30109 4.5 4.5 4.5H10.5C10.6989 4.5 10.8897 4.57902 11.0303 4.71967C11.171 4.86032 11.25 5.05109 11.25 5.25V6.75C11.25 6.94891 11.171 7.13968 11.0303 7.28033C10.8897 7.42098 10.6989 7.5 10.5 7.5H4.5C4.30109 7.5 4.11032 7.42098 3.96967 7.28033C3.82902 7.13968 3.75 6.94891 3.75 6.75V5.25ZM10.5 5.25H4.5V6.75H10.5V5.25ZM9 8.25C8.80109 8.25 8.61032 8.32902 8.46967 8.46967C8.32902 8.61032 8.25 8.80109 8.25 9V9.75C8.25 9.94891 8.32902 10.1397 8.46967 10.2803C8.61032 10.421 8.80109 10.5 9 10.5H10.5C10.6989 10.5 10.8897 10.421 11.0303 10.2803C11.171 10.1397 11.25 9.94891 11.25 9.75V9C11.25 8.80109 11.171 8.61032 11.0303 8.46967C10.8897 8.32902 10.6989 8.25 10.5 8.25H9ZM9 9H10.5V9.75H9V9ZM3.75 8.625C3.75 8.52554 3.78951 8.43016 3.85984 8.35983C3.93016 8.28951 4.02554 8.25 4.125 8.25H7.125C7.22446 8.25 7.31984 8.28951 7.39017 8.35983C7.46049 8.43016 7.5 8.52554 7.5 8.625C7.5 8.72446 7.46049 8.81984 7.39017 8.89017C7.31984 8.96049 7.22446 9 7.125 9H4.125C4.02554 9 3.93016 8.96049 3.85984 8.89017C3.78951 8.81984 3.75 8.72446 3.75 8.625ZM4.125 9.75C4.02554 9.75 3.93016 9.78951 3.85984 9.85983C3.78951 9.93016 3.75 10.0255 3.75 10.125C3.75 10.2245 3.78951 10.3198 3.85984 10.3902C3.93016 10.4605 4.02554 10.5 4.125 10.5H7.125C7.22446 10.5 7.31984 10.4605 7.39017 10.3902C7.46049 10.3198 7.5 10.2245 7.5 10.125C7.5 10.0255 7.46049 9.93016 7.39017 9.85983C7.31984 9.78951 7.22446 9.75 7.125 9.75H4.125ZM2.25 4.5C2.25 3.90326 2.48705 3.33097 2.90901 2.90901C3.33097 2.48705 3.90326 2.25 4.5 2.25H10.5C11.0967 2.25 11.669 2.48705 12.091 2.90901C12.5129 3.33097 12.75 3.90326 12.75 4.5V10.5C12.75 11.0967 12.5129 11.669 12.091 12.091C11.669 12.5129 11.0967 12.75 10.5 12.75H4.5C3.90326 12.75 3.33097 12.5129 2.90901 12.091C2.48705 11.669 2.25 11.0967 2.25 10.5V4.5ZM4.5 3C4.10218 3 3.72064 3.15804 3.43934 3.43934C3.15804 3.72064 3 4.10218 3 4.5V10.5C3 10.8978 3.15804 11.2794 3.43934 11.5607C3.72064 11.842 4.10218 12 4.5 12H10.5C10.8978 12 11.2794 11.842 11.5607 11.5607C11.842 11.2794 12 10.8978 12 10.5V4.5C12 4.10218 11.842 3.72064 11.5607 3.43934C11.2794 3.15804 10.8978 3 10.5 3H4.5Z" fill="#2563EB"/>
</svg>
