<svg width="24" height="24" viewBox="0 0 24 24" fill="none" xmlns="http://www.w3.org/2000/svg">
<path d="M9.80859 9.89062C9.62891 10.1797 9.42188 10.4414 9.1875 10.6758C8.95312 10.9102 8.6875 11.1211 8.39062 11.3086L8.98828 12.7617L7.60547 13.3242L7.00781 11.8828C6.69531 11.9609 6.35938 12 6 12C5.64062 12 5.30469 11.9609 4.99219 11.8828L4.39453 13.3242L3.01172 12.7617L3.60938 11.3086C3.32031 11.1289 3.05859 10.9219 2.82422 10.6875C2.58984 10.4531 2.37891 10.1875 2.19141 9.89062L0.738281 10.4883L0.175781 9.10547L1.61719 8.50781C1.53906 8.19531 1.5 7.85938 1.5 7.5C1.5 7.14062 1.53906 6.80469 1.61719 6.49219L0.175781 5.89453L0.738281 4.51172L2.19141 5.10938C2.55078 4.52344 3.02344 4.05078 3.60938 3.69141L3.01172 2.23828L4.39453 1.67578L4.99219 3.11719C5.30469 3.03906 5.64062 3 6 3C6.35938 3 6.69531 3.03906 7.00781 3.11719L7.60547 1.67578L8.98828 2.23828L8.39062 3.69141C8.97656 4.05078 9.44922 4.52344 9.80859 5.10938L11.2617 4.51172L11.8242 5.89453L10.3828 6.49219C10.4609 6.80469 10.5 7.14062 10.5 7.5C10.5 7.85938 10.4609 8.19531 10.3828 8.50781L11.8242 9.10547L11.2617 10.4883L9.80859 9.89062ZM6 10.5C6.41406 10.5 6.80078 10.4219 7.16016 10.2656C7.51953 10.1094 7.83984 9.89453 8.12109 9.62109C8.40234 9.34766 8.61719 9.03125 8.76562 8.67188C8.91406 8.3125 8.99219 7.92188 9 7.5C9 7.08594 8.92188 6.69922 8.76562 6.33984C8.60938 5.98047 8.39453 5.66016 8.12109 5.37891C7.84766 5.09766 7.53125 4.88281 7.17188 4.73438C6.8125 4.58594 6.42188 4.50781 6 4.5C5.58594 4.5 5.19922 4.57812 4.83984 4.73438C4.48047 4.89062 4.16016 5.10547 3.87891 5.37891C3.59766 5.65234 3.38281 5.96875 3.23438 6.32812C3.08594 6.6875 3.00781 7.07812 3 7.5C3 7.91406 3.07812 8.30078 3.23438 8.66016C3.39062 9.01953 3.60547 9.33984 3.87891 9.62109C4.15234 9.90234 4.46875 10.1172 4.82812 10.2656C5.1875 10.4141 5.57812 10.4922 6 10.5ZM22.5 15.75C22.5 16.1797 22.4453 16.6133 22.3359 17.0508L23.9414 17.707L23.3789 19.1016L21.7617 18.4336C21.3008 19.1992 20.6914 19.8086 19.9336 20.2617L20.6016 21.8672L19.207 22.4414L18.5508 20.8359C18.1133 20.9453 17.6797 21 17.25 21C16.8203 21 16.3867 20.9453 15.9492 20.8359L15.293 22.4414L13.8984 21.8672L14.5664 20.2617C13.8008 19.8086 13.1914 19.1992 12.7383 18.4336L11.1211 19.1016L10.5586 17.707L12.1641 17.0508C12.0547 16.6133 12 16.1797 12 15.75C12 15.3203 12.0547 14.8867 12.1641 14.4492L10.5586 13.793L11.1211 12.3984L12.7383 13.0664C13.1914 12.3086 13.8008 11.6992 14.5664 11.2383L13.8984 9.62109L15.293 9.05859L15.9492 10.6641C16.3867 10.5547 16.8203 10.5 17.25 10.5C17.6797 10.5 18.1133 10.5547 18.5508 10.6641L19.207 9.05859L20.6016 9.62109L19.9336 11.2383C20.6914 11.6992 21.3008 12.3086 21.7617 13.0664L23.3789 12.3984L23.9414 13.793L22.3359 14.4492C22.4453 14.8867 22.5 15.3203 22.5 15.75ZM17.25 19.5C17.7656 19.5 18.25 19.4023 18.7031 19.207C19.1562 19.0117 19.5508 18.7461 19.8867 18.4102C20.2227 18.0742 20.4922 17.6758 20.6953 17.2148C20.8984 16.7539 21 16.2656 21 15.75C21 15.2344 20.9023 14.75 20.707 14.2969C20.5117 13.8438 20.2422 13.4492 19.8984 13.1133C19.5547 12.7773 19.1562 12.5078 18.7031 12.3047C18.25 12.1016 17.7656 12 17.25 12C16.7344 12 16.25 12.0977 15.7969 12.293C15.3438 12.4883 14.9453 12.7578 14.6016 13.1016C14.2578 13.4453 13.9883 13.8438 13.793 14.2969C13.5977 14.75 13.5 15.2344 13.5 15.75C13.5 16.2656 13.5977 16.75 13.793 17.2031C13.9883 17.6562 14.2539 18.0547 14.5898 18.3984C14.9258 18.7422 15.3242 19.0117 15.7852 19.207C16.2461 19.4023 16.7344 19.5 17.25 19.5Z" fill="white"/>
</svg>
