<svg width="74" height="78" viewBox="0 0 74 78" fill="none" xmlns="http://www.w3.org/2000/svg">
<path fill-rule="evenodd" clip-rule="evenodd" d="M17.4808 41.3001H17.3608C12.3494 41.2373 5.30364 47.4716 2.79507 51.9516C0.275071 56.4658 -0.702072 62.2316 0.532214 69.4544C1.22936 73.5401 4.87507 76.083 8.65793 76.083H10.0179C14.9551 76.083 17.9379 71.9116 19.3894 68.9058C19.8922 67.8658 22.2694 66.0944 23.8122 65.3287L24.0979 64.9287L23.9722 64.6773C21.7265 59.2201 18.8236 50.5801 17.4808 41.3001ZM49.3779 64.9344L49.6636 65.3287C51.2065 66.0944 53.5836 67.8658 54.0865 68.9058C55.5379 71.9116 58.5151 76.083 63.4579 76.083H64.8179C68.5951 76.083 72.2465 73.5401 72.9436 69.4544C74.1779 62.2316 73.2008 56.4658 70.6751 51.9516C68.1722 47.4658 61.1265 41.2373 56.1151 41.3001H56.0008C54.6522 50.5801 51.7494 59.2201 49.4979 64.6773L49.3779 64.9344Z" fill="#2859C5"/>
<path fill-rule="evenodd" clip-rule="evenodd" d="M35.7098 0.191565C36.3717 -0.0638549 37.105 -0.0638549 37.7669 0.191565C44.9955 2.97442 49.8241 7.62014 52.7841 13.2773C55.7098 18.8659 56.7498 25.3001 56.7384 31.6487C56.7155 44.3059 52.5155 57.3516 49.4984 64.6773C49.2833 65.2008 48.9175 65.6487 48.4475 65.9641C47.9775 66.2795 47.4244 66.4482 46.8584 66.4487H26.6184C26.0514 66.4493 25.497 66.2812 25.0259 65.9657C24.5548 65.6502 24.1881 65.2017 23.9727 64.6773C20.9612 57.3516 16.7612 44.3059 16.7384 31.6487C16.7269 25.3001 17.7669 18.8659 20.6927 13.2773C23.6584 7.62014 28.4812 2.97442 35.7098 0.191565Z" fill="#8FBFFA"/>
<path fill-rule="evenodd" clip-rule="evenodd" d="M18.2408 19.5344C17.5967 21.8715 17.1663 24.2623 16.9551 26.6773H56.5151C56.3038 24.2623 55.8735 21.8715 55.2294 19.5344H18.2408ZM41.0236 44.6544C41.0236 43.5178 40.5721 42.4277 39.7684 41.624C38.9647 40.8202 37.8746 40.3687 36.7379 40.3687C35.6013 40.3687 34.5112 40.8202 33.7075 41.624C32.9037 42.4277 32.4522 43.5178 32.4522 44.6544V73.2259C32.4522 74.3625 32.9037 75.4526 33.7075 76.2563C34.5112 77.06 35.6013 77.5116 36.7379 77.5116C37.8746 77.5116 38.9647 77.06 39.7684 76.2563C40.5721 75.4526 41.0236 74.3625 41.0236 73.2259V44.6544Z" fill="#2859C5"/>
</svg>
