<svg width="50" height="50" viewBox="0 0 50 50" fill="none" xmlns="http://www.w3.org/2000/svg">
<path d="M4.20117 29.1671C8.78451 29.1671 12.4991 32.8816 12.4991 37.465M12.4991 8.36914C12.4991 12.9525 8.78451 16.6671 4.20117 16.6671M37.4991 8.36914C37.4991 12.9108 41.1845 16.6046 45.7116 16.6671" stroke="#0D9488" stroke-width="4" stroke-linecap="round" stroke-linejoin="round"/>
<path d="M45.8327 22.9168V20.8335C45.8327 14.9418 45.8327 11.9939 44.0014 10.1647C42.1723 8.3335 39.2244 8.3335 33.3327 8.3335H16.666C10.7743 8.3335 7.82643 8.3335 5.99727 10.1647C4.16602 11.9939 4.16602 14.9418 4.16602 20.8335V25.0002C4.16602 30.8918 4.16602 33.8397 5.99727 35.6689C7.82643 37.5002 10.7743 37.5002 16.666 37.5002H22.916" stroke="#0D9488" stroke-width="4" stroke-linecap="round" stroke-linejoin="round"/>
<path d="M29.1667 37.5003C29.1667 37.5003 31.25 37.5003 33.3333 41.667C33.3333 41.667 39.9521 31.2503 45.8333 29.167M31.25 22.917C31.25 24.5746 30.5915 26.1643 29.4194 27.3364C28.2473 28.5085 26.6576 29.167 25 29.167C23.3424 29.167 21.7527 28.5085 20.5806 27.3364C19.4085 26.1643 18.75 24.5746 18.75 22.917C18.75 21.2594 19.4085 19.6697 20.5806 18.4976C21.7527 17.3255 23.3424 16.667 25 16.667C26.6576 16.667 28.2473 17.3255 29.4194 18.4976C30.5915 19.6697 31.25 21.2594 31.25 22.917Z" stroke="#0D9488" stroke-width="4" stroke-linecap="round" stroke-linejoin="round"/>
</svg>
