<svg width="20" height="20" viewBox="0 0 20 20" fill="none" xmlns="http://www.w3.org/2000/svg">
<path d="M18.3327 8.75L10.7352 2.35167C10.5293 2.17832 10.2689 2.08325 9.99977 2.08325C9.73065 2.08325 9.47019 2.17832 9.26435 2.35167L1.66602 8.75" stroke="#111827" stroke-width="1.5" stroke-linecap="round" stroke-linejoin="round"/>
<path d="M17.0827 4.16666V12.9167C17.0827 15.2733 17.0827 16.4525 16.3502 17.1842C15.6185 17.9167 14.4393 17.9167 12.0827 17.9167H7.91602C5.55935 17.9167 4.38018 17.9167 3.64852 17.1842C2.91602 16.4525 2.91602 15.2733 2.91602 12.9167V7.91666" stroke="#111827" stroke-width="1.5" stroke-linecap="round" stroke-linejoin="round"/>
<path d="M8.74935 9.58334H7.91602V10.4167H8.74935V9.58334ZM12.0827 9.58334H11.2493V10.4167H12.0827V9.58334ZM8.74935 12.9167H7.91602V13.75H8.74935V12.9167ZM12.0827 12.9167H11.2493V13.75H12.0827V12.9167Z" stroke="#111827" stroke-width="1.5" stroke-linecap="round" stroke-linejoin="round"/>
</svg>
