<svg width="15" height="15" viewBox="0 0 15 15" fill="none" xmlns="http://www.w3.org/2000/svg">
<g clip-path="url(#clip0_468_2940)">
<path d="M1.56284 3.75C1.56284 2.7875 1.56284 2.30625 1.77971 1.9525C1.90096 1.75438 2.06721 1.58812 2.26534 1.46687C2.61846 1.25 3.10034 1.25 4.06284 1.25C5.02534 1.25 5.50659 1.25 5.86034 1.46687C6.05846 1.58812 6.22471 1.75438 6.34596 1.9525C6.56284 2.30563 6.56284 2.7875 6.56284 3.75C6.56284 4.7125 6.56284 5.19375 6.34596 5.5475C6.22471 5.74563 6.05846 5.91187 5.86034 6.03312C5.50721 6.25 5.02534 6.25 4.06284 6.25C3.10034 6.25 2.61909 6.25 2.26534 6.03312C2.06736 5.9119 1.90094 5.74548 1.77971 5.5475C1.56284 5.19438 1.56284 4.7125 1.56284 3.75ZM2.36409 9.23875C3.01846 8.58437 3.34534 8.2575 3.73284 8.16375C3.94975 8.11163 4.17593 8.11163 4.39284 8.16375C4.78034 8.2575 5.10721 8.58437 5.76159 9.23875C6.41596 9.89312 6.74284 10.22 6.83659 10.6075C6.88778 10.8245 6.88778 11.0505 6.83659 11.2675C6.74284 11.655 6.41596 11.9825 5.76159 12.6363C5.10721 13.29 4.78034 13.6175 4.39284 13.7112C4.17593 13.7634 3.94975 13.7634 3.73284 13.7112C3.34534 13.6175 3.01846 13.2906 2.36409 12.6363C1.70971 11.9819 1.38284 11.655 1.28909 11.2675C1.23697 11.0506 1.23697 10.8244 1.28909 10.6075C1.38284 10.22 1.70971 9.8925 2.36409 9.23875ZM8.75034 11.25C8.75034 10.2875 8.75034 9.80625 8.96721 9.4525C9.08846 9.25437 9.25471 9.08813 9.45284 8.96688C9.80596 8.75 10.2878 8.75 11.2503 8.75C12.2128 8.75 12.6941 8.75 13.0485 8.96688C13.246 9.08813 13.4122 9.25437 13.5335 9.4525C13.7503 9.80562 13.7503 10.2875 13.7503 11.25C13.7503 12.2125 13.7503 12.6938 13.5335 13.0481C13.4122 13.2457 13.246 13.4118 13.0485 13.5331C12.6941 13.75 12.2128 13.75 11.2503 13.75C10.2878 13.75 9.80659 13.75 9.45284 13.5331C9.25493 13.4121 9.08852 13.2459 8.96721 13.0481C8.75034 12.6938 8.75034 12.2125 8.75034 11.25Z" stroke="#2563EB" stroke-width="0.9375"/>
<path d="M11.25 1.25V6.25M13.75 3.75H8.75" stroke="#2563EB" stroke-width="0.9375" stroke-linecap="round" stroke-linejoin="round"/>
</g>
<defs>
<clipPath id="clip0_468_2940">
<rect width="15" height="15" fill="white"/>
</clipPath>
</defs>
</svg>
