<svg width="50" height="50" viewBox="0 0 50 50" fill="none" xmlns="http://www.w3.org/2000/svg">
<path d="M31.5021 42.425L35.9229 38.0062M35.9229 38.0062L40.3417 33.5854M35.9229 38.0062L31.5 33.5833M35.9208 38.0042L40.3396 42.4229M43.75 27.0833V16.6667C43.75 15.5616 43.311 14.5018 42.5296 13.7204C41.7482 12.939 40.6884 12.5 39.5833 12.5H10.4167C9.3116 12.5 8.25179 12.939 7.47039 13.7204C6.68899 14.5018 6.25 15.5616 6.25 16.6667V29.1667C6.25 30.2717 6.68899 31.3315 7.47039 32.1129C8.25179 32.8943 9.3116 33.3333 10.4167 33.3333H22.9167M25 22.9375L25.0208 22.9146M33.3333 22.9375L33.3542 22.9146M16.6667 22.9375L16.6875 22.9146" stroke="#F87171" stroke-width="3.125" stroke-linecap="round" stroke-linejoin="round"/>
</svg>
