<svg width="15" height="15" viewBox="0 0 15 15" fill="none" xmlns="http://www.w3.org/2000/svg">
<path d="M4.375 11.25H8.75M4.375 8.75H5M4.375 6.25H6.25M4.375 1.25H10.3125L13.125 4.0625V11.875" stroke="#2563EB" stroke-width="0.9375" stroke-linecap="round" stroke-linejoin="round"/>
<path d="M1.875 12.8125V4.0625C1.875 3.81386 1.97377 3.5754 2.14959 3.39959C2.3254 3.22377 2.56386 3.125 2.8125 3.125H8.9075C9.00692 3.12509 9.10224 3.16465 9.1725 3.235L11.14 5.2025C11.175 5.23744 11.2027 5.27895 11.2216 5.32464C11.2405 5.37033 11.2501 5.41931 11.25 5.46875V12.8125C11.25 13.0611 11.1512 13.2996 10.9754 13.4754C10.7996 13.6512 10.5611 13.75 10.3125 13.75H2.8125C2.56386 13.75 2.3254 13.6512 2.14959 13.4754C1.97377 13.2996 1.875 13.0611 1.875 12.8125Z" stroke="#2563EB" stroke-width="0.9375" stroke-linecap="round" stroke-linejoin="round"/>
<path d="M8.75 3.125V5.25C8.75 5.34946 8.78951 5.44484 8.85983 5.51517C8.93016 5.58549 9.02554 5.625 9.125 5.625H11.25" stroke="#2563EB" stroke-width="0.9375" stroke-linecap="round" stroke-linejoin="round"/>
</svg>
