<svg width="20" height="20" viewBox="0 0 20 20" fill="none" xmlns="http://www.w3.org/2000/svg">
<path d="M10.0013 18.3333C5.39893 18.3333 1.66797 14.6023 1.66797 9.99999C1.66797 5.39761 5.39893 1.66666 10.0013 1.66666C14.6036 1.66666 18.3346 5.39761 18.3346 9.99999C18.3346 14.6023 14.6036 18.3333 10.0013 18.3333ZM10.0013 16.6667C13.6832 16.6667 16.668 13.6819 16.668 9.99999C16.668 6.31809 13.6832 3.33332 10.0013 3.33332C6.3194 3.33332 3.33464 6.31809 3.33464 9.99999C3.33464 13.6819 6.3194 16.6667 10.0013 16.6667ZM9.16797 5.83332H10.8346V7.49999H9.16797V5.83332ZM9.16797 9.16666H10.8346V14.1667H9.16797V9.16666Z" fill="#111827"/>
</svg>
