<svg width="20" height="20" viewBox="0 0 20 20" fill="none" xmlns="http://www.w3.org/2000/svg">
<g clip-path="url(#clip0_552_8412)">
<path d="M14.375 4.375H5.625C2.52344 4.375 0 6.89844 0 10C0 13.1016 2.52344 15.625 5.625 15.625H14.375C17.4766 15.625 20 13.1016 20 10C20 6.89844 17.4766 4.375 14.375 4.375ZM14.375 14.375C13.5097 14.375 12.6638 14.1184 11.9444 13.6377C11.2249 13.1569 10.6642 12.4737 10.333 11.6742C10.0019 10.8748 9.91525 9.99515 10.0841 9.14648C10.2529 8.29781 10.6696 7.51826 11.2814 6.90641C11.8933 6.29455 12.6728 5.87787 13.5215 5.70906C14.3701 5.54025 15.2498 5.62689 16.0492 5.95803C16.8487 6.28916 17.5319 6.84992 18.0127 7.56938C18.4934 8.28885 18.75 9.13471 18.75 10C18.7488 11.1599 18.2874 12.272 17.4672 13.0922C16.647 13.9124 15.5349 14.3738 14.375 14.375Z" fill="#111827" fill-opacity="0.5"/>
</g>
<defs>
<clipPath id="clip0_552_8412">
<rect width="20" height="20" fill="white"/>
</clipPath>
</defs>
</svg>
