<svg width="20" height="20" viewBox="0 0 20 20" fill="none" xmlns="http://www.w3.org/2000/svg">
<path fill-rule="evenodd" clip-rule="evenodd" d="M16.4994 8.48337C16.241 5.83337 14.6744 1.66669 9.83272 1.66669C4.99104 1.66669 3.42436 5.83337 3.16604 8.48337C2.25979 8.82731 1.66201 9.69739 1.66604 10.6667V11.8334C1.66604 13.122 2.71072 14.1667 3.99936 14.1667C5.28803 14.1667 6.33272 13.122 6.33272 11.8334V10.6667C6.3285 9.71829 5.75272 8.8661 4.87436 8.50837C5.04104 6.97501 5.85772 3.33337 9.83272 3.33337C13.8077 3.33337 14.616 6.97501 14.7827 8.50837C13.9062 8.86688 13.3333 9.71966 13.3327 10.6667V11.8334C13.3345 12.2724 13.4597 12.7021 13.694 13.0734C13.9283 13.4448 14.2622 13.7427 14.6577 13.9334C14.3077 14.5917 13.416 15.4834 11.2244 15.75C10.7863 15.0848 9.93865 14.8225 9.20139 15.1241C8.46416 15.4257 8.04334 16.2068 8.19709 16.9884C8.35084 17.7699 9.03615 18.3334 9.83272 18.3334C10.1414 18.3316 10.4435 18.2442 10.7054 18.0809C10.9673 17.9176 11.1787 17.6848 11.316 17.4084C14.891 17 16.0327 15.1584 16.391 14.075C17.3604 13.761 18.0124 12.8523 17.9994 11.8334V10.6667C18.0034 9.69739 17.4056 8.82731 16.4994 8.48337ZM4.66604 11.8334C4.66604 12.2015 4.36756 12.5 3.99936 12.5C3.63115 12.5 3.33272 12.2016 3.33272 11.8334V10.6667C3.33204 10.5787 3.34879 10.4915 3.38199 10.41C3.41519 10.3285 3.46419 10.2544 3.52616 10.192C3.58813 10.1295 3.66185 10.08 3.74307 10.0461C3.82429 10.0123 3.9114 9.9949 3.99938 9.9949C4.08735 9.9949 4.17446 10.0123 4.25568 10.0461C4.3369 10.08 4.41062 10.1295 4.47259 10.192C4.53456 10.2544 4.58356 10.3285 4.61676 10.41C4.64996 10.4915 4.66671 10.5787 4.66604 10.6667V11.8334ZM14.9994 10.6667C14.9994 10.2985 15.2978 10 15.666 10C16.0342 10 16.3327 10.2985 16.3327 10.6667V11.8334C16.3327 12.2015 16.0342 12.5 15.666 12.5C15.2978 12.5 14.9994 12.2016 14.9994 11.8334V10.6667Z" fill="#111827"/>
</svg>
