<svg width="20" height="20" viewBox="0 0 20 20" fill="none" xmlns="http://www.w3.org/2000/svg">
<path d="M13.3332 6.66699C14.6593 6.66699 15.931 7.19378 16.8687 8.13146C17.8064 9.06914 18.3332 10.3409 18.3332 11.667V17.5003H14.9998V11.667C14.9998 11.225 14.8242 10.801 14.5117 10.4885C14.1991 10.1759 13.7752 10.0003 13.3332 10.0003C12.8911 10.0003 12.4672 10.1759 12.1547 10.4885C11.8421 10.801 11.6665 11.225 11.6665 11.667V17.5003H8.33317V11.667C8.33317 10.3409 8.85995 9.06914 9.79764 8.13146C10.7353 7.19378 12.0071 6.66699 13.3332 6.66699ZM1.6665 7.50033H4.99984V17.5003H1.6665V7.50033Z" stroke="white" stroke-width="2" stroke-linecap="round" stroke-linejoin="round"/>
<path d="M3.33317 5.00033C4.25365 5.00033 4.99984 4.25413 4.99984 3.33366C4.99984 2.41318 4.25365 1.66699 3.33317 1.66699C2.4127 1.66699 1.6665 2.41318 1.6665 3.33366C1.6665 4.25413 2.4127 5.00033 3.33317 5.00033Z" stroke="white" stroke-width="2" stroke-linecap="round" stroke-linejoin="round"/>
</svg>
