<svg width="16" height="16" viewBox="0 0 16 16" fill="none" xmlns="http://www.w3.org/2000/svg">
<path d="M1.66674 12.3333V11.6667H14.3334V12.3333H1.66674ZM2.0234 8.35134L1.5154 8.05667L2.15874 6.928H0.87207V6.33867H2.15874L1.5154 5.244L2.0234 4.94867L2.66674 6.044L3.31074 4.94867L3.81807 5.244L3.17474 6.33867H4.4614V6.928H3.17474L3.81807 8.05667L3.31007 8.35134L2.66674 7.22334L2.0234 8.35134ZM7.35674 8.35134L6.84874 8.05667L7.49274 6.928H6.2054V6.33867H7.49207L6.84874 5.244L7.35674 4.94867L8.00007 6.044L8.64407 4.94867L9.1514 5.244L8.50807 6.33867H9.79474V6.928H8.50807L9.1514 8.05667L8.6434 8.35134L8.00007 7.22334L7.35674 8.35134ZM12.6901 8.35134L12.1821 8.05667L12.8261 6.928H11.5387V6.33867H12.8254L12.1821 5.244L12.6901 4.94867L13.3334 6.044L13.9774 4.94867L14.4847 5.244L13.8414 6.33867H15.1281V6.928H13.8414L14.4847 8.05667L13.9767 8.35134L13.3334 7.22334L12.6901 8.35134Z" fill="#111827"/>
</svg>
