<svg width="20" height="20" viewBox="0 0 20 20" fill="none" xmlns="http://www.w3.org/2000/svg">
<path d="M2.5 14.2308C2.93833 14.2308 3.315 14.3883 3.63 14.7033C3.945 15.0183 4.1025 15.395 4.1025 15.8333H2.5V14.2308ZM2.5 11.41C3.73 11.41 4.77444 11.8392 5.63333 12.6975C6.49389 13.5558 6.92417 14.6011 6.92417 15.8333H6.09083C6.09083 14.8517 5.74056 14.0133 5.04 13.3183C4.33944 12.6233 3.49278 12.265 2.5 12.2433V11.41ZM2.5 8.26917C3.55 8.26917 4.53278 8.46639 5.44833 8.86083C6.36389 9.25528 7.16444 9.79611 7.85 10.4833C8.53556 11.1706 9.07611 11.9711 9.47167 12.885C9.86722 13.7989 10.0644 14.7817 10.0633 15.8333H9.23C9.23 14.9006 9.05333 14.0269 8.7 13.2125C8.34722 12.3975 7.86611 11.6853 7.25667 11.0758C6.64722 10.4664 5.93528 9.98555 5.12083 9.63333C4.30639 9.28111 3.43278 9.10417 2.5 9.1025V8.26917ZM12.0517 15.8333C12.0517 14.5117 11.8017 13.2722 11.3017 12.115C10.8017 10.9578 10.1192 9.94528 9.25417 9.0775C8.38917 8.20972 7.37667 7.52694 6.21667 7.02917C5.05667 6.53139 3.81778 6.28278 2.5 6.28333V5.51417C2.5 5.14361 2.63194 4.82667 2.89583 4.56333C3.15972 4.3 3.47639 4.16778 3.84583 4.16667H9.8175C9.77694 4.30222 9.74917 4.43694 9.73417 4.57083C9.71917 4.70417 9.70639 4.84722 9.69583 5C9.58861 6.53667 10.0564 7.86639 11.0992 8.98917C12.1419 10.1119 13.4422 10.6731 15 10.6725C15.4389 10.6725 15.8678 10.6169 16.2867 10.5058C16.7056 10.3947 17.11 10.2356 17.5 10.0283V14.4883C17.5 14.8583 17.3681 15.175 17.1042 15.4383C16.8403 15.7017 16.5236 15.8336 16.1542 15.8342L12.0517 15.8333ZM15 8.68583C14.0717 8.68583 13.2842 8.3625 12.6375 7.71583C11.9903 7.06861 11.6667 6.28083 11.6667 5.3525C11.6667 4.42417 11.9903 3.63667 12.6375 2.99C13.2847 2.34333 14.0722 2.01972 15 2.01917C15.9278 2.01861 16.7156 2.34222 17.3633 2.99C18.0111 3.63778 18.3344 4.42528 18.3333 5.3525C18.3322 6.27972 18.0089 7.0675 17.3633 7.71583C16.7178 8.36417 15.93 8.6875 15 8.68583ZM15 7.37167C15.1111 7.37167 15.2028 7.33555 15.275 7.26333C15.3483 7.19055 15.385 7.09861 15.385 6.9875C15.385 6.87639 15.3486 6.78444 15.2758 6.71167C15.2031 6.63889 15.1111 6.6025 15 6.6025C14.8889 6.6025 14.7972 6.63861 14.725 6.71083C14.6528 6.78305 14.6161 6.87528 14.615 6.9875C14.6139 7.09972 14.6503 7.19139 14.7242 7.2625C14.7969 7.33528 14.8889 7.37167 15 7.37167ZM14.68 5.83333H15.3208V3.33333H14.6792L14.68 5.83333Z" fill="#2563EB"/>
</svg>
