<svg width="20" height="20" viewBox="0 0 20 20" fill="none" xmlns="http://www.w3.org/2000/svg">
<path d="M10.4167 9.82667V6.25C10.4167 6.13167 10.3767 6.03278 10.2967 5.95333C10.2167 5.87389 10.1175 5.83389 9.99917 5.83333C9.88083 5.83278 9.78194 5.87278 9.7025 5.95333C9.62305 6.03389 9.58333 6.13278 9.58333 6.25V9.89917C9.58333 9.98417 9.59889 10.0667 9.63 10.1467C9.66111 10.2261 9.71278 10.3022 9.785 10.375L12.7433 13.3333C12.8211 13.4111 12.9169 13.4528 13.0308 13.4583C13.1447 13.4639 13.2456 13.4222 13.3333 13.3333C13.4211 13.2444 13.4656 13.1461 13.4667 13.0383C13.4678 12.9306 13.4233 12.8322 13.3333 12.7433L10.4167 9.82667ZM10.0025 17.5C8.96583 17.5 7.99083 17.3033 7.0775 16.91C6.16472 16.5161 5.37056 15.9817 4.695 15.3067C4.01944 14.6317 3.48472 13.8383 3.09083 12.9267C2.69694 12.015 2.5 11.0403 2.5 10.0025C2.5 8.96472 2.69694 7.98972 3.09083 7.0775C3.48417 6.16472 4.01778 5.37056 4.69167 4.695C5.36556 4.01944 6.15917 3.48472 7.0725 3.09083C7.98583 2.69694 8.96083 2.5 9.9975 2.5C11.0342 2.5 12.0092 2.69694 12.9225 3.09083C13.8353 3.48417 14.6294 4.01806 15.305 4.6925C15.9806 5.36694 16.5153 6.16056 16.9092 7.07333C17.3031 7.98611 17.5 8.96083 17.5 9.9975C17.5 11.0342 17.3033 12.0092 16.91 12.9225C16.5167 13.8358 15.9822 14.63 15.3067 15.305C14.6311 15.98 13.8378 16.5147 12.9267 16.9092C12.0156 17.3036 11.0408 17.5006 10.0025 17.5Z" fill="#2563EB"/>
</svg>
