<svg width="20" height="20" viewBox="0 0 20 20" fill="none" xmlns="http://www.w3.org/2000/svg">
<path d="M9.12533 11.1917L7.63866 9.705C7.55699 9.62388 7.46116 9.58083 7.35116 9.57583C7.24116 9.57083 7.14033 9.61388 7.04866 9.705C6.95699 9.79611 6.91088 9.89527 6.91033 10.0025C6.90977 10.1097 6.95588 10.2089 7.04866 10.3L8.65449 11.91C8.78894 12.045 8.94588 12.1125 9.12533 12.1125C9.30477 12.1125 9.46199 12.045 9.59699 11.91L12.962 8.545C13.0431 8.46388 13.0864 8.3675 13.092 8.25583C13.0975 8.14416 13.0542 8.0425 12.962 7.95083C12.8698 7.85916 12.7706 7.81305 12.6645 7.8125C12.5584 7.81194 12.4595 7.85805 12.3678 7.95083L9.12533 11.1917ZM10.0003 17.3692C9.92477 17.3692 9.84533 17.3622 9.76199 17.3483C9.67866 17.3344 9.6006 17.3136 9.52783 17.2858C7.88727 16.6603 6.58366 15.6 5.61699 14.105C4.65033 12.61 4.16699 10.9917 4.16699 9.25V5.68083C4.16699 5.3975 4.24894 5.14111 4.41283 4.91166C4.57671 4.68222 4.78644 4.51555 5.04199 4.41166L9.52949 2.745C9.69172 2.68611 9.84866 2.65666 10.0003 2.65666C10.152 2.65666 10.3092 2.68611 10.472 2.745L14.9587 4.41166C15.2142 4.51555 15.4239 4.68222 15.5878 4.91166C15.7517 5.14111 15.8337 5.3975 15.8337 5.68083V9.25C15.8337 10.9917 15.3503 12.61 14.3837 14.105C13.417 15.6 12.1134 16.66 10.4728 17.285C10.4006 17.3128 10.3228 17.3336 10.2395 17.3475C10.1562 17.3614 10.0764 17.3683 10.0003 17.3683" fill="white"/>
</svg>
