<svg width="20" height="20" viewBox="0 0 20 20" fill="none" xmlns="http://www.w3.org/2000/svg">
<path d="M4.16797 4.16667H15.0013C15.6643 4.16667 16.3002 4.43006 16.7691 4.8989C17.2379 5.36775 17.5013 6.00363 17.5013 6.66667V14.1667C17.5013 14.8297 17.2379 15.4656 16.7691 15.9344C16.3002 16.4033 15.6643 16.6667 15.0013 16.6667H4.16797C3.50493 16.6667 2.86904 16.4033 2.4002 15.9344C1.93136 15.4656 1.66797 14.8297 1.66797 14.1667V6.66667C1.66797 6.00363 1.93136 5.36775 2.4002 4.8989C2.86904 4.43006 3.50493 4.16667 4.16797 4.16667ZM4.16797 5.00001C3.7513 5.00001 3.38464 5.14167 3.1013 5.39167L9.58464 9.58334L16.068 5.39167C15.7846 5.14167 15.418 5.00001 15.0013 5.00001H4.16797ZM9.58464 10.5917L2.60964 6.06667C2.54297 6.25001 2.5013 6.45834 2.5013 6.66667V14.1667C2.5013 14.6087 2.6769 15.0326 2.98946 15.3452C3.30202 15.6577 3.72594 15.8333 4.16797 15.8333H15.0013C15.4433 15.8333 15.8673 15.6577 16.1798 15.3452C16.4924 15.0326 16.668 14.6087 16.668 14.1667V6.66667C16.668 6.45834 16.6263 6.25001 16.5596 6.06667L9.58464 10.5917Z" fill="#2563EB"/>
</svg>
