<svg width="20" height="20" viewBox="0 0 20 20" fill="none" xmlns="http://www.w3.org/2000/svg">
<path d="M11.6663 10V16.5667C11.6996 16.8167 11.6163 17.0833 11.4246 17.2583C11.3475 17.3356 11.256 17.3969 11.1551 17.4387C11.0543 17.4805 10.9463 17.502 10.8371 17.502C10.728 17.502 10.6199 17.4805 10.5191 17.4387C10.4183 17.3969 10.3267 17.3356 10.2496 17.2583L8.57462 15.5833C8.48379 15.4944 8.41471 15.3858 8.37279 15.2658C8.33087 15.1458 8.31724 15.0178 8.33295 14.8917V10H8.30795L3.50795 3.85C3.37263 3.67628 3.31157 3.45605 3.33811 3.23744C3.36466 3.01883 3.47665 2.81962 3.64962 2.68333C3.80795 2.56667 3.98295 2.5 4.16629 2.5H15.833C16.0163 2.5 16.1913 2.56667 16.3496 2.68333C16.5226 2.81962 16.6346 3.01883 16.6611 3.23744C16.6877 3.45605 16.6266 3.67628 16.4913 3.85L11.6913 10H11.6663Z" fill="#111827"/>
</svg>
