<svg width="50" height="50" viewBox="0 0 50 50" fill="none" xmlns="http://www.w3.org/2000/svg">
<path d="M12.8542 8.8544H26.0417C26.4561 8.8544 26.8535 9.01902 27.1465 9.31205C27.4395 9.60508 27.6042 10.0025 27.6042 10.4169C27.6042 10.8313 27.4395 11.2287 27.1465 11.5218C26.8535 11.8148 26.4561 11.9794 26.0417 11.9794H12.9167C11.725 11.9794 10.9229 11.9794 10.3062 12.0315C9.70833 12.0794 9.42292 12.1669 9.23333 12.2627C8.74375 12.5127 8.34583 12.9107 8.09583 13.4002C8 13.5877 7.9125 13.8752 7.86458 14.4732C7.81458 15.0898 7.8125 15.8898 7.8125 17.0836V17.1877H26.0417C26.4561 17.1877 26.8535 17.3524 27.1465 17.6454C27.4395 17.9384 27.6042 18.3358 27.6042 18.7502C27.6042 19.1646 27.4395 19.5621 27.1465 19.8551C26.8535 20.1481 26.4561 20.3127 26.0417 20.3127H7.8125V32.9169C7.8125 34.1107 7.8125 34.9107 7.86458 35.5273C7.9125 36.1252 8 36.4107 8.09583 36.5982C8.34583 37.0898 8.74583 37.4877 9.23333 37.7377C9.42083 37.8336 9.70833 37.9211 10.3062 37.969C10.9208 38.019 11.7208 38.0211 12.9104 38.0211H37.0896C38.2792 38.0211 39.0792 38.0211 39.6937 37.969C40.2917 37.9211 40.5771 37.8336 40.7646 37.7377C41.2542 37.4877 41.6542 37.0877 41.9042 36.5982C42 36.4107 42.0875 36.1252 42.1354 35.5273C42.1854 34.9127 42.1875 34.1148 42.1875 32.9232V22.9169C42.1875 22.5025 42.3521 22.1051 42.6451 21.8121C42.9382 21.519 43.3356 21.3544 43.75 21.3544C44.1644 21.3544 44.5618 21.519 44.8549 21.8121C45.1479 22.1051 45.3125 22.5025 45.3125 22.9169V32.9877C45.3125 34.0982 45.3125 35.0252 45.25 35.7836C45.1875 36.5752 45.0458 37.3148 44.6875 38.0169C44.1385 39.0959 43.2619 39.9733 42.1833 40.5232C41.4812 40.8794 40.7396 41.019 39.9479 41.0857C39.1917 41.1461 38.2646 41.1461 37.1542 41.1461H12.8458C11.7354 41.1461 10.8083 41.1461 10.05 41.0836C9.25833 41.0211 8.51667 40.8794 7.81458 40.5211C6.73712 39.9714 5.86127 39.0948 5.3125 38.0169C4.95417 37.3148 4.8125 36.5732 4.75 35.7815C4.6875 35.0232 4.6875 34.094 4.6875 32.9815V17.0211C4.6875 15.9086 4.6875 14.9794 4.75 14.219C4.8125 13.4273 4.95417 12.6857 5.3125 11.9815C5.86108 10.9047 6.73613 10.0289 7.8125 9.47941C8.51667 9.12107 9.25833 8.97941 10.05 8.91691C10.8104 8.85441 11.7396 8.8544 12.8542 8.8544ZM33.2687 9.31274C33.5617 9.02013 33.9589 8.85578 34.3729 8.85578C34.787 8.85578 35.1841 9.02013 35.4771 9.31274L38.5396 12.3752L41.6021 9.31274C41.7451 9.15922 41.9176 9.03609 42.1093 8.95069C42.301 8.86529 42.5079 8.81937 42.7177 8.81567C42.9275 8.81197 43.1359 8.85056 43.3304 8.92915C43.525 9.00773 43.7017 9.1247 43.8501 9.27307C43.9985 9.42145 44.1154 9.59818 44.194 9.79274C44.2726 9.9873 44.3112 10.1957 44.3075 10.4055C44.3038 10.6153 44.2579 10.8222 44.1725 11.0139C44.0871 11.2055 43.9639 11.378 43.8104 11.5211L40.75 14.5836L43.8125 17.6461C44.0885 17.9423 44.2388 18.334 44.2316 18.7388C44.2245 19.1436 44.0605 19.5298 43.7742 19.8161C43.4879 20.1024 43.1017 20.2664 42.6969 20.2735C42.2921 20.2807 41.9004 20.1304 41.6042 19.8544L38.5417 16.7919L35.4792 19.8544C35.3361 20.0079 35.1636 20.131 34.972 20.2164C34.7803 20.3018 34.5734 20.3478 34.3636 20.3515C34.1538 20.3552 33.9454 20.3166 33.7508 20.238C33.5563 20.1594 33.3795 20.0424 33.2312 19.8941C33.0828 19.7457 32.9658 19.569 32.8872 19.3744C32.8087 19.1798 32.7701 18.9714 32.7738 18.7617C32.7775 18.5519 32.8234 18.3449 32.9088 18.1533C32.9942 17.9616 33.1173 17.7891 33.2708 17.6461L36.3333 14.5836L33.2708 11.5211C32.9782 11.2281 32.8139 10.831 32.8139 10.4169C32.8139 10.0028 32.9782 9.60571 33.2708 9.31274M10.9375 31.2502C10.9375 30.8358 11.1021 30.4384 11.3951 30.1454C11.6882 29.8524 12.0856 29.6877 12.5 29.6877H20.8333C21.2477 29.6877 21.6452 29.8524 21.9382 30.1454C22.2312 30.4384 22.3958 30.8358 22.3958 31.2502C22.3958 31.6646 22.2312 32.0621 21.9382 32.3551C21.6452 32.6481 21.2477 32.8127 20.8333 32.8127H12.5C12.0856 32.8127 11.6882 32.6481 11.3951 32.3551C11.1021 32.0621 10.9375 31.6646 10.9375 31.2502Z" fill="#F87171"/>
</svg>
