<svg width="30" height="30" viewBox="0 0 30 30" fill="none" xmlns="http://www.w3.org/2000/svg">
<g clip-path="url(#clip0_453_1984)">
<path fill-rule="evenodd" clip-rule="evenodd" d="M13.725 0.0543292C16.3138 -0.1666 18.9157 0.288716 21.2756 1.37568C23.6356 2.46263 25.6727 4.14396 27.1875 6.25495V3.2812C27.1875 2.90824 27.3357 2.55056 27.5994 2.28684C27.8631 2.02311 28.2208 1.87495 28.5938 1.87495C28.9667 1.87495 29.3244 2.02311 29.5881 2.28684C29.8518 2.55056 30 2.90824 30 3.2812V11.25H22.0312C21.6583 11.25 21.3006 11.1018 21.0369 10.8381C20.7732 10.5744 20.625 10.2167 20.625 9.8437C20.625 9.47074 20.7732 9.11306 21.0369 8.84934C21.3006 8.58561 21.6583 8.43745 22.0312 8.43745H25.2694C23.9871 6.43103 22.1451 4.84418 19.971 3.87293C17.7969 2.90169 15.386 2.58859 13.0359 2.97232C10.6859 3.35605 8.49968 4.4198 6.74746 6.03216C4.99523 7.64452 3.75371 9.73486 3.17625 12.045C3.13366 12.2264 3.05541 12.3976 2.94606 12.5486C2.83672 12.6995 2.69845 12.8272 2.5393 12.9243C2.38015 13.0213 2.2033 13.0857 2.01903 13.1138C1.83476 13.1419 1.64675 13.1331 1.46592 13.0878C1.2851 13.0426 1.11507 12.9618 0.965725 12.8503C0.816382 12.7388 0.690703 12.5987 0.595997 12.4381C0.50129 12.2776 0.439446 12.0998 0.41406 11.9151C0.388675 11.7305 0.400254 11.5426 0.448125 11.3625C1.20664 8.3295 2.89388 5.60935 5.27399 3.58223C7.65409 1.55511 10.6081 0.322324 13.7231 0.0562042L13.725 0.0543292ZM7.35 27.9018C9.35997 29.0932 11.6205 29.7985 13.9513 29.9616C16.2821 30.1246 18.6188 29.741 20.7751 28.8411C22.9313 27.9413 24.8476 26.5501 26.3711 24.7786C27.8945 23.0071 28.9831 20.9042 29.55 18.6375C29.6344 18.2778 29.5739 17.8994 29.3816 17.584C29.1893 17.2686 28.8806 17.0416 28.5222 16.9519C28.1639 16.8622 27.7846 16.9172 27.4665 17.1049C27.1483 17.2926 26.9167 17.5979 26.8219 17.955C26.2441 20.2646 25.0025 22.3544 23.2505 23.9663C21.4984 25.5783 19.3126 26.6418 16.9629 27.0254C14.6133 27.4091 12.2027 27.0963 10.0288 26.1254C7.85499 25.1546 6.01311 23.5683 4.73063 21.5625H7.96875C8.34171 21.5625 8.6994 21.4143 8.96312 21.1506C9.22684 20.8868 9.375 20.5292 9.375 20.1562C9.375 19.7832 9.22684 19.4256 8.96312 19.1618C8.6994 18.8981 8.34171 18.75 7.96875 18.75H0V26.7187C0 27.0917 0.148158 27.4493 0.411881 27.7131C0.675604 27.9768 1.03329 28.125 1.40625 28.125C1.77921 28.125 2.1369 27.9768 2.40062 27.7131C2.66434 27.4493 2.8125 27.0917 2.8125 26.7187V23.745C4.02147 25.4293 5.56647 26.8447 7.35 27.9018Z" fill="#2563EB"/>
</g>
<defs>
<clipPath id="clip0_453_1984">
<rect width="30" height="30" fill="white"/>
</clipPath>
</defs>
</svg>
