<svg width="32" height="32" viewBox="0 0 32 32" fill="none" xmlns="http://www.w3.org/2000/svg">
<path d="M18.7499 28C18.7499 28.1989 18.6708 28.3897 18.5302 28.5303C18.3895 28.671 18.1988 28.75 17.9999 28.75H13.9999C13.8009 28.75 13.6102 28.671 13.4695 28.5303C13.3289 28.3897 13.2499 28.1989 13.2499 28C13.2499 27.8011 13.3289 27.6103 13.4695 27.4697C13.6102 27.329 13.8009 27.25 13.9999 27.25H17.9999C18.1988 27.25 18.3895 27.329 18.5302 27.4697C18.6708 27.6103 18.7499 27.8011 18.7499 28ZM15.9999 13.75C16.2471 13.75 16.4888 13.6767 16.6943 13.5393C16.8999 13.402 17.0601 13.2068 17.1547 12.9783C17.2493 12.7499 17.2741 12.4986 17.2258 12.2561C17.1776 12.0137 17.0586 11.7909 16.8837 11.6161C16.7089 11.4413 16.4862 11.3222 16.2437 11.274C16.0012 11.2258 15.7499 11.2505 15.5215 11.3451C15.2931 11.4398 15.0979 11.6 14.9605 11.8055C14.8232 12.0111 14.7499 12.2528 14.7499 12.5C14.7499 12.8315 14.8815 13.1495 15.116 13.3839C15.3504 13.6183 15.6683 13.75 15.9999 13.75ZM27.7086 19.425L26.1636 26.375C26.0998 26.664 25.9638 26.9321 25.7682 27.1542C25.5727 27.3764 25.324 27.5453 25.0454 27.6452C24.7668 27.7451 24.4675 27.7727 24.1753 27.7254C23.8831 27.6782 23.6077 27.5576 23.3749 27.375L19.9011 24.75H12.1024L8.62485 27.375C8.39195 27.5585 8.11623 27.6798 7.82359 27.7276C7.53094 27.7753 7.23096 27.7479 6.9518 27.648C6.67265 27.548 6.42347 27.3787 6.22766 27.1561C6.03185 26.9334 5.89582 26.6646 5.83235 26.375L4.2911 19.425C4.23359 19.1638 4.23647 18.8929 4.2995 18.6329C4.36254 18.373 4.48408 18.1309 4.65485 17.925L8.27985 13.58C8.39203 12.0045 8.74968 10.4563 9.33985 8.99125C10.9299 5.00625 13.7799 2.50625 14.9311 1.61625C15.238 1.37825 15.6153 1.24908 16.0036 1.24908C16.3919 1.24908 16.7692 1.37825 17.0761 1.61625C18.2274 2.50625 21.0761 5.00625 22.6674 8.99125C23.2575 10.4563 23.6152 12.0045 23.7274 13.58L27.3524 17.925C27.5218 18.1315 27.642 18.3739 27.7037 18.6338C27.7655 18.8938 27.7671 19.1643 27.7086 19.425ZM12.2824 23.25H19.7174C22.4586 18.4425 22.9824 13.8337 21.2711 9.54749C19.7774 5.79749 16.9774 3.43875 16.1549 2.7975C16.1107 2.76262 16.0561 2.74365 15.9999 2.74365C15.9436 2.74365 15.889 2.76262 15.8449 2.7975C15.0224 3.43375 12.2199 5.79749 10.7286 9.54749C9.01735 13.8337 9.5411 18.4425 12.2824 23.25ZM10.8749 23.8C9.37485 21.1137 8.51235 18.475 8.29735 15.9012L5.80735 18.885C5.78287 18.9143 5.76542 18.9487 5.75632 18.9858C5.74722 19.0228 5.74672 19.0615 5.75485 19.0987L7.3011 26.0537C7.3103 26.0952 7.32988 26.1336 7.35802 26.1653C7.38615 26.1971 7.42191 26.2212 7.46192 26.2353C7.50194 26.2495 7.54489 26.2532 7.58673 26.2461C7.62858 26.2391 7.66794 26.2215 7.7011 26.195L7.71735 26.1812L10.8749 23.8ZM26.1961 18.885L23.7099 15.9012C23.4949 18.475 22.6349 21.1137 21.1324 23.8L24.2861 26.175L24.3024 26.1887C24.3355 26.2152 24.3749 26.2328 24.4167 26.2399C24.4586 26.2469 24.5015 26.2432 24.5415 26.2291C24.5815 26.2149 24.6173 26.1909 24.6454 26.1591C24.6736 26.1273 24.6932 26.0889 24.7024 26.0475L26.2499 19.0987C26.2573 19.0611 26.256 19.0222 26.246 18.9852C26.2361 18.9481 26.2177 18.9138 26.1924 18.885H26.1961Z" fill="#2563EB"/>
</svg>
