<svg width="16" height="16" viewBox="0 0 16 16" fill="none" xmlns="http://www.w3.org/2000/svg">
<path d="M14.5 8C14.5 9.5 11.59 12.5 8 12.5C4.41 12.5 1.5 9.5 1.5 8C1.5 6.5 4.41 3.5 8 3.5C11.59 3.5 14.5 6.5 14.5 8Z" stroke="#111827" stroke-opacity="0.5" stroke-linejoin="round"/>
<path d="M10.5 8C10.5 8.66304 10.2366 9.29893 9.76777 9.76777C9.29893 10.2366 8.66304 10.5 8 10.5C7.33696 10.5 6.70107 10.2366 6.23223 9.76777C5.76339 9.29893 5.5 8.66304 5.5 8C5.5 7.33696 5.76339 6.70107 6.23223 6.23223C6.70107 5.76339 7.33696 5.5 8 5.5C8.66304 5.5 9.29893 5.76339 9.76777 6.23223C10.2366 6.70107 10.5 7.33696 10.5 8Z" stroke="#111827" stroke-opacity="0.5" stroke-linejoin="round"/>
</svg>
