<svg width="15" height="15" viewBox="0 0 15 15" fill="none" xmlns="http://www.w3.org/2000/svg">
<path d="M7.50047 1.25C7.66623 1.25 7.8252 1.31585 7.94241 1.43306C8.05962 1.55027 8.12547 1.70924 8.12547 1.875V3.75C8.12547 3.91576 8.05962 4.07473 7.94241 4.19194C7.8252 4.30915 7.66623 4.375 7.50047 4.375C7.3347 4.375 7.17573 4.30915 7.05852 4.19194C6.94131 4.07473 6.87547 3.91576 6.87547 3.75V1.875C6.87547 1.70924 6.94131 1.55027 7.05852 1.43306C7.17573 1.31585 7.3347 1.25 7.50047 1.25ZM7.50047 10.625C7.66623 10.625 7.8252 10.6908 7.94241 10.8081C8.05962 10.9253 8.12547 11.0842 8.12547 11.25V13.125C8.12547 13.2908 8.05962 13.4497 7.94241 13.5669C7.8252 13.6842 7.66623 13.75 7.50047 13.75C7.3347 13.75 7.17573 13.6842 7.05852 13.5669C6.94131 13.4497 6.87547 13.2908 6.87547 13.125V11.25C6.87547 11.0842 6.94131 10.9253 7.05852 10.8081C7.17573 10.6908 7.3347 10.625 7.50047 10.625ZM12.913 4.375C12.9958 4.51855 13.0183 4.68914 12.9754 4.84925C12.9325 5.00936 12.8278 5.14587 12.6842 5.22875L11.0605 6.16625C10.9894 6.20794 10.9107 6.23515 10.829 6.24631C10.7474 6.25748 10.6643 6.25238 10.5846 6.23131C10.5049 6.21024 10.4302 6.17362 10.3647 6.12355C10.2993 6.07349 10.2443 6.01096 10.2031 5.93958C10.1619 5.8682 10.1352 5.78937 10.1246 5.70763C10.114 5.62589 10.1196 5.54286 10.1412 5.46332C10.1628 5.38377 10.1999 5.30928 10.2504 5.24414C10.3009 5.179 10.3638 5.12449 10.4355 5.08375L12.0592 4.14625C12.2028 4.06337 12.3734 4.04091 12.5335 4.08381C12.6936 4.12671 12.8301 4.23145 12.913 4.375ZM4.79422 9.0625C4.83523 9.13362 4.86182 9.21211 4.87249 9.29351C4.88316 9.37491 4.87769 9.45761 4.85639 9.53689C4.83509 9.61617 4.79837 9.69048 4.74835 9.75557C4.69833 9.82066 4.63597 9.87526 4.56484 9.91625L2.94109 10.8537C2.86998 10.8954 2.79133 10.9226 2.70967 10.9338C2.628 10.945 2.54494 10.9399 2.46525 10.9188C2.38556 10.8977 2.31083 10.8611 2.24535 10.8111C2.17988 10.761 2.12495 10.6985 2.08374 10.6271C2.04252 10.5557 2.01584 10.4769 2.00521 10.3951C1.99459 10.3134 2.00024 10.2304 2.02183 10.1508C2.04343 10.0713 2.08055 9.99678 2.13105 9.93164C2.18155 9.8665 2.24444 9.81199 2.31609 9.77125L3.93984 8.83375C4.08339 8.75087 4.25398 8.72841 4.41409 8.77131C4.5742 8.81421 4.71133 8.91895 4.79422 9.0625ZM12.913 10.625C12.8301 10.7685 12.6936 10.8733 12.5335 10.9162C12.3734 10.9591 12.2028 10.9366 12.0592 10.8537L10.4355 9.91625C10.2931 9.83278 10.1895 9.69638 10.1473 9.53682C10.1051 9.37726 10.1278 9.2075 10.2103 9.06457C10.2928 8.92164 10.4285 8.81715 10.5878 8.77391C10.7471 8.73066 10.917 8.75218 11.0605 8.83375L12.6842 9.77125C12.8278 9.85413 12.9325 9.99064 12.9754 10.1508C13.0183 10.3109 12.9958 10.4815 12.913 10.625ZM4.79422 5.9375C4.75318 6.00866 4.69851 6.07103 4.63335 6.12105C4.56818 6.17106 4.4938 6.20774 4.41445 6.22899C4.3351 6.25023 4.25234 6.25563 4.1709 6.24486C4.08946 6.2341 4.01095 6.20738 3.93984 6.16625L2.31609 5.22875C2.24444 5.18801 2.18155 5.1335 2.13105 5.06836C2.08055 5.00322 2.04343 4.92873 2.02183 4.84918C2.00024 4.76964 1.99459 4.68661 2.00521 4.60487C2.01584 4.52313 2.04252 4.4443 2.08374 4.37292C2.12495 4.30154 2.17988 4.23901 2.24535 4.18895C2.31083 4.13888 2.38556 4.10226 2.46525 4.08119C2.54494 4.06012 2.628 4.05502 2.70967 4.06619C2.79133 4.07735 2.86998 4.10456 2.94109 4.14625L4.56484 5.08375C4.63597 5.12474 4.69833 5.17934 4.74835 5.24443C4.79837 5.30952 4.83509 5.38383 4.85639 5.46311C4.87769 5.54239 4.88316 5.62509 4.87249 5.70649C4.86182 5.78789 4.83523 5.86638 4.79422 5.9375Z" fill="#2563EB"/>
</svg>
