<svg width="20" height="20" viewBox="0 0 20 20" fill="none" xmlns="http://www.w3.org/2000/svg">
<path d="M7.54554 1.04167C8.68471 1.04167 9.60387 1.04167 10.3264 1.13917C11.0764 1.23917 11.708 1.45584 12.2097 1.95667C12.6464 2.39417 12.868 2.93167 12.9839 3.56334C13.0964 4.17751 13.118 4.92834 13.123 5.83C13.1239 5.99577 13.0589 6.15509 12.9423 6.27292C12.8258 6.39076 12.6671 6.45745 12.5014 6.45834C12.3356 6.45922 12.1763 6.39422 12.0585 6.27764C11.9406 6.16105 11.8739 6.00243 11.873 5.83667C11.868 4.92584 11.8447 4.28 11.7547 3.78917C11.6672 3.3175 11.528 3.04334 11.3255 2.84084C11.0947 2.61001 10.7705 2.46001 10.1589 2.3775C9.5297 2.29334 8.69554 2.29167 7.4997 2.29167H6.66637C5.46971 2.29167 4.63554 2.29334 4.00637 2.3775C3.39471 2.46001 3.07137 2.61084 2.83971 2.84084C2.60971 3.07167 2.45971 3.395 2.37721 4.0075C2.29221 4.63584 2.29137 5.47084 2.29137 6.66667V13.3333C2.29137 14.5292 2.29221 15.3633 2.37721 15.9933C2.45971 16.605 2.6097 16.9283 2.84054 17.1592C3.07137 17.39 3.39471 17.54 4.00637 17.6225C4.63554 17.7067 5.46971 17.7083 6.66637 17.7083H7.4997C8.69554 17.7083 9.5297 17.7067 10.1597 17.6225C10.7705 17.54 11.0947 17.3892 11.3255 17.1592C11.528 16.9558 11.6672 16.6825 11.7547 16.2108C11.8447 15.72 11.868 15.0742 11.873 14.1633C11.8735 14.0813 11.8901 14.0001 11.9219 13.9244C11.9537 13.8488 12.0001 13.7801 12.0585 13.7224C12.1168 13.6646 12.1859 13.619 12.2619 13.588C12.3379 13.557 12.4193 13.5412 12.5014 13.5417C12.5834 13.5421 12.6646 13.5587 12.7403 13.5905C12.816 13.6223 12.8846 13.6687 12.9423 13.7271C13.0001 13.7854 13.0457 13.8546 13.0767 13.9306C13.1077 14.0066 13.1235 14.0879 13.123 14.17C13.118 15.0717 13.0964 15.8225 12.9839 16.4367C12.8672 17.0683 12.6464 17.6058 12.2089 18.0433C11.708 18.545 11.0755 18.76 10.3255 18.8617C9.60387 18.9583 8.68471 18.9583 7.54554 18.9583H6.62054C5.48054 18.9583 4.5622 18.9583 3.8397 18.8617C3.0897 18.76 2.45804 18.545 1.95637 18.0433C1.4547 17.5417 1.2397 16.91 1.13804 16.16C1.04137 15.4375 1.04137 14.5183 1.04137 13.3792V6.62084C1.04137 5.48167 1.04137 4.5625 1.13804 3.84C1.23887 3.09 1.4547 2.45834 1.95637 1.95667C2.45804 1.45501 3.0897 1.24001 3.8397 1.13917C4.5622 1.04167 5.48137 1.04167 6.62054 1.04167H7.54554Z" fill="#111827"/>
<path d="M7.50019 9.375C7.33442 9.375 7.17545 9.44085 7.05824 9.55806C6.94103 9.67527 6.87519 9.83424 6.87519 10C6.87519 10.1658 6.94103 10.3247 7.05824 10.4419C7.17545 10.5591 7.33442 10.625 7.50019 10.625H16.6444L15.0102 12.025C14.8842 12.1329 14.8062 12.2863 14.7934 12.4517C14.7806 12.617 14.834 12.7807 14.9419 12.9067C15.0497 13.0326 15.2032 13.1106 15.3685 13.1234C15.5339 13.1362 15.6975 13.0829 15.8235 12.975L18.7402 10.475C18.8088 10.4163 18.8639 10.3435 18.9017 10.2615C18.9394 10.1795 18.959 10.0903 18.959 10C18.959 9.90972 18.9394 9.82051 18.9017 9.73851C18.8639 9.65651 18.8088 9.58367 18.7402 9.525L15.8235 7.025C15.7611 6.97159 15.6889 6.931 15.6108 6.90553C15.5327 6.88006 15.4504 6.87022 15.3685 6.87656C15.2867 6.88291 15.2068 6.90532 15.1336 6.94251C15.0604 6.9797 14.9953 7.03095 14.9419 7.09333C14.8884 7.15571 14.8479 7.22799 14.8224 7.30606C14.7969 7.38413 14.7871 7.46645 14.7934 7.54832C14.7998 7.63019 14.8222 7.71001 14.8594 7.78322C14.8966 7.85643 14.9478 7.92159 15.0102 7.975L16.6435 9.375H7.50019Z" fill="#111827"/>
</svg>
