<svg width="32" height="32" viewBox="0 0 32 32" fill="none" xmlns="http://www.w3.org/2000/svg">
<path d="M29.3346 16C29.3346 10.972 29.3346 8.45734 27.772 6.89601C26.2093 5.33468 23.696 5.33334 18.668 5.33334H13.3346C8.30664 5.33334 5.79197 5.33334 4.23064 6.89601C2.6693 8.45868 2.66797 10.972 2.66797 16C2.66797 21.028 2.66797 23.5427 4.23064 25.104C5.7933 26.6653 8.30664 26.6667 13.3346 26.6667H18.668C23.696 26.6667 26.2106 26.6667 27.772 25.104C28.644 24.2333 29.0293 23.0667 29.1986 21.3333M13.3346 21.3333H8.0013M18.668 21.3333H16.668M2.66797 13.3333H9.33464M29.3346 13.3333H14.668" stroke="#2563EB" stroke-width="2" stroke-linecap="round"/>
</svg>
