<svg width="20" height="20" viewBox="0 0 20 20" fill="none" xmlns="http://www.w3.org/2000/svg">
<path d="M10 12.5C11.3807 12.5 12.5 11.3807 12.5 10C12.5 8.61929 11.3807 7.5 10 7.5C8.61929 7.5 7.5 8.61929 7.5 10C7.5 11.3807 8.61929 12.5 10 12.5Z" stroke="#111827" stroke-width="1.5"/>
<path d="M3.05023 8.86666C3.4444 9.11332 3.69773 9.53499 3.69773 9.99999C3.69773 10.465 3.4444 10.8867 3.05023 11.1333C2.78273 11.3025 2.6094 11.4367 2.4869 11.5967C2.35364 11.7704 2.25591 11.9686 2.19929 12.1801C2.14267 12.3916 2.12826 12.6121 2.1569 12.8292C2.20023 13.1575 2.3944 13.4942 2.7819 14.1667C3.17107 14.8392 3.36523 15.175 3.62773 15.3775C3.80143 15.5107 3.99968 15.6085 4.21115 15.6651C4.42263 15.7217 4.64319 15.7361 4.86023 15.7075C5.06023 15.6808 5.26273 15.5992 5.54273 15.4508C5.74319 15.3414 5.96813 15.2846 6.19651 15.2858C6.42489 15.2869 6.64924 15.346 6.84857 15.4575C7.25107 15.6908 7.49023 16.12 7.5069 16.585C7.51857 16.9017 7.54857 17.1183 7.62607 17.3042C7.70983 17.5065 7.83265 17.6904 7.9875 17.8452C8.14236 18.0001 8.32622 18.1229 8.52857 18.2067C8.8344 18.3333 9.22273 18.3333 9.9994 18.3333C10.7761 18.3333 11.1644 18.3333 11.4702 18.2067C11.6726 18.1229 11.8564 18.0001 12.0113 17.8452C12.1662 17.6904 12.289 17.5065 12.3727 17.3042C12.4494 17.1183 12.4802 16.9017 12.4919 16.585C12.5086 16.12 12.7477 15.69 13.1502 15.4575C13.3496 15.346 13.5739 15.2869 13.8023 15.2858C14.0307 15.2846 14.2556 15.3414 14.4561 15.4508C14.7361 15.5992 14.9394 15.6808 15.1394 15.7075C15.5775 15.7651 16.0205 15.6464 16.3711 15.3775C16.6336 15.1758 16.8277 14.8392 17.2161 14.1667C17.3894 13.8667 17.5236 13.6342 17.6236 13.4392M16.9486 11.1342C16.7536 11.0154 16.592 10.8491 16.4787 10.6509C16.3655 10.4527 16.3044 10.2291 16.3011 10.0008C16.3011 9.53499 16.5544 9.11332 16.9486 8.86582C17.2161 8.69749 17.3886 8.56332 17.5119 8.40332C17.6452 8.22963 17.7429 8.03138 17.7995 7.8199C17.8561 7.60843 17.8705 7.38787 17.8419 7.17082C17.7986 6.84249 17.6044 6.50582 17.2169 5.83332C16.8277 5.16082 16.6336 4.82499 16.3711 4.62249C16.1974 4.48923 15.9991 4.3915 15.7876 4.33488C15.5762 4.27826 15.3556 4.26385 15.1386 4.29249C14.9386 4.31916 14.7361 4.40082 14.4552 4.54916C14.2549 4.65844 14.0301 4.71515 13.8019 4.71399C13.5737 4.71282 13.3495 4.65382 13.1502 4.54249C12.9541 4.42557 12.7908 4.2608 12.6757 4.06362C12.5606 3.86643 12.4973 3.64326 12.4919 3.41499C12.4802 3.09832 12.4502 2.88166 12.3727 2.69582C12.289 2.49347 12.1662 2.30962 12.0113 2.15476C11.8564 1.9999 11.6726 1.87708 11.4702 1.79332C11.1644 1.66666 10.7761 1.66666 9.9994 1.66666C9.22273 1.66666 8.8344 1.66666 8.52857 1.79332C8.32622 1.87708 8.14236 1.9999 7.9875 2.15476C7.83265 2.30962 7.70983 2.49347 7.62607 2.69582C7.5494 2.88166 7.51857 3.09832 7.5069 3.41499C7.50147 3.64326 7.43824 3.86643 7.3231 4.06362C7.20797 4.2608 7.0447 4.42557 6.84857 4.54249C6.64924 4.65397 6.42489 4.71305 6.19651 4.71422C5.96813 4.71538 5.74319 4.65859 5.54273 4.54916C5.26273 4.40082 5.0594 4.31916 4.8594 4.29249C4.42133 4.23488 3.97832 4.35358 3.62773 4.62249C3.36607 4.82499 3.17107 5.16082 2.78273 5.83332C2.6094 6.13332 2.47523 6.36582 2.37523 6.56082" stroke="#111827" stroke-width="1.5" stroke-linecap="round"/>
</svg>
