<svg width="20" height="20" viewBox="0 0 20 20" fill="none" xmlns="http://www.w3.org/2000/svg">
<path fill-rule="evenodd" clip-rule="evenodd" d="M18.3327 10C18.3327 14.6025 14.6018 18.3334 9.99935 18.3334C5.39685 18.3334 1.66602 14.6025 1.66602 10C1.66602 5.39752 5.39685 1.66669 9.99935 1.66669C14.6018 1.66669 18.3327 5.39752 18.3327 10ZM13.1243 10C13.1243 10.1658 13.0585 10.3248 12.9413 10.442C12.8241 10.5592 12.6651 10.625 12.4993 10.625H7.49935C7.33359 10.625 7.17462 10.5592 7.05741 10.442C6.9402 10.3248 6.87435 10.1658 6.87435 10C6.87435 9.83426 6.9402 9.67529 7.05741 9.55808C7.17462 9.44087 7.33359 9.37502 7.49935 9.37502H12.4993C12.6651 9.37502 12.8241 9.44087 12.9413 9.55808C13.0585 9.67529 13.1243 9.83426 13.1243 10Z" fill="#2563EB"/>
</svg>
