<svg width="30" height="30" viewBox="0 0 30 30" fill="none" xmlns="http://www.w3.org/2000/svg">
<path opacity="0.6" d="M11.25 2.5H12.5C16.035 2.5 17.8038 2.5 18.9013 3.59875C20 4.69625 20 6.465 20 10V20C20 23.535 20 25.3038 18.9013 26.4013C17.8038 27.5 16.035 27.5 12.5 27.5H11.25C7.715 27.5 5.94625 27.5 4.84875 26.4013C3.75 25.3038 3.75 23.535 3.75 20V10C3.75 6.465 3.75 4.69625 4.84875 3.59875C5.94625 2.5 7.715 2.5 11.25 2.5Z" fill="#FB923C"/>
<path opacity="0.4" d="M20 10C20 8.0775 20 6.67875 19.8238 5.625H20C22.9463 5.625 24.42 5.625 25.335 6.54C26.25 7.455 26.25 8.92875 26.25 11.875V18.125C26.25 21.0713 26.25 22.5437 25.335 23.46C24.42 24.3762 22.9463 24.375 20 24.375H19.8238C20 23.3213 20 21.9225 20 20V10Z" fill="#FB923C"/>
<path fill-rule="evenodd" clip-rule="evenodd" d="M24.4133 14.3374C24.5889 14.5132 24.6875 14.7515 24.6875 14.9999C24.6875 15.2484 24.5889 15.4867 24.4133 15.6624L21.9133 18.1624C21.7356 18.328 21.5005 18.4182 21.2577 18.4139C21.0148 18.4096 20.7831 18.3112 20.6113 18.1395C20.4395 17.9677 20.3411 17.736 20.3369 17.4931C20.3326 17.2502 20.4227 17.0152 20.5883 16.8374L21.4883 15.9374H12.5008C12.2522 15.9374 12.0137 15.8387 11.8379 15.6629C11.6621 15.487 11.5633 15.2486 11.5633 14.9999C11.5633 14.7513 11.6621 14.5129 11.8379 14.337C12.0137 14.1612 12.2522 14.0624 12.5008 14.0624H21.4883L20.5883 13.1624C20.4962 13.0766 20.4223 12.9731 20.3711 12.8581C20.3199 12.7431 20.2923 12.619 20.2901 12.4931C20.2879 12.3672 20.311 12.2422 20.3582 12.1255C20.4053 12.0087 20.4755 11.9027 20.5645 11.8137C20.6536 11.7246 20.7596 11.6544 20.8763 11.6073C20.9931 11.5601 21.1181 11.537 21.244 11.5392C21.3699 11.5414 21.494 11.569 21.609 11.6202C21.724 11.6715 21.8275 11.7453 21.9133 11.8374L24.4133 14.3374Z" fill="#FB923C"/>
</svg>
