<svg width="24" height="24" viewBox="0 0 24 24" fill="none" xmlns="http://www.w3.org/2000/svg">
<path fill-rule="evenodd" clip-rule="evenodd" d="M13.2502 13.1L22.7172 19.726L21.2832 21.774L12.0002 15.276L2.7172 21.774L1.2832 19.726L10.7502 13.099V1.75H13.2502V13.1Z" fill="white"/>
<path fill-rule="evenodd" clip-rule="evenodd" d="M12 1.25C11.0717 1.25 10.1815 1.61875 9.52513 2.27513C8.86875 2.9315 8.5 3.82174 8.5 4.75C8.5 5.67826 8.86875 6.5685 9.52513 7.22487C10.1815 7.88125 11.0717 8.25 12 8.25C12.9283 8.25 13.8185 7.88125 14.4749 7.22487C15.1313 6.5685 15.5 5.67826 15.5 4.75C15.5 3.82174 15.1313 2.9315 14.4749 2.27513C13.8185 1.61875 12.9283 1.25 12 1.25ZM4.5 15.75C3.57174 15.75 2.6815 16.1187 2.02513 16.7751C1.36875 17.4315 1 18.3217 1 19.25C1 20.1783 1.36875 21.0685 2.02513 21.7249C2.6815 22.3813 3.57174 22.75 4.5 22.75C5.42826 22.75 6.3185 22.3813 6.97487 21.7249C7.63125 21.0685 8 20.1783 8 19.25C8 18.3217 7.63125 17.4315 6.97487 16.7751C6.3185 16.1187 5.42826 15.75 4.5 15.75ZM19.5 15.75C18.5717 15.75 17.6815 16.1187 17.0251 16.7751C16.3687 17.4315 16 18.3217 16 19.25C16 20.1783 16.3687 21.0685 17.0251 21.7249C17.6815 22.3813 18.5717 22.75 19.5 22.75C20.4283 22.75 21.3185 22.3813 21.9749 21.7249C22.6313 21.0685 23 20.1783 23 19.25C23 18.3217 22.6313 17.4315 21.9749 16.7751C21.3185 16.1187 20.4283 15.75 19.5 15.75Z" fill="white"/>
</svg>
