<svg width="40" height="40" viewBox="0 0 40 40" fill="none" xmlns="http://www.w3.org/2000/svg">
<path fill-rule="evenodd" clip-rule="evenodd" d="M25.4465 21.9486C26.8322 22.0629 28.2122 22.68 29.5094 23.8257C30.8265 22.7114 32.2179 22.1143 33.6037 22.02C34.421 21.9681 35.24 22.0926 36.0051 22.3849C36.7701 22.6772 37.4634 23.1306 38.0379 23.7143C40.1865 25.8514 40.8779 29.7829 38.0865 32.4743L38.0579 32.5029L30.4494 39.4171C30.1864 39.6565 29.8435 39.7891 29.4879 39.7891C29.1324 39.7891 28.7895 39.6565 28.5265 39.4171L20.9208 32.5029L20.8722 32.4571C18.1008 29.7 18.8237 25.7486 20.9922 23.6114C21.5695 23.0276 22.267 22.5765 23.0362 22.2893C23.8054 22.0022 24.6279 21.8859 25.4465 21.9486Z" fill="#0D9488"/>
<path fill-rule="evenodd" clip-rule="evenodd" d="M25.3436 2.85714C25.7148 2.86158 26.0786 2.9624 26.3991 3.14973C26.7197 3.33705 26.986 3.60445 27.1722 3.92571L32.9579 13.9257C33.0988 14.1694 33.1903 14.4385 33.2272 14.7175C33.2641 14.9966 33.2457 15.2802 33.173 15.5521C33.1003 15.8241 32.9747 16.079 32.8035 16.3025C32.6323 16.5259 32.4187 16.7134 32.175 16.8543C31.9313 16.9952 31.6623 17.0867 31.3832 17.1236C31.1041 17.1605 30.8205 17.1421 30.5486 17.0694C30.2766 16.9967 30.0217 16.8711 29.7983 16.6999C29.5748 16.5287 29.3873 16.3151 29.2464 16.0714L25.2636 9.18571L14.1236 27.3714C13.9353 27.6787 13.6726 27.9335 13.3597 28.1123C13.0469 28.2911 12.694 28.3882 12.3337 28.3944C11.9734 28.4007 11.6173 28.316 11.2984 28.1482C10.9795 27.9804 10.7081 27.7348 10.5093 27.4343L5.35787 19.6429H2.17215C1.60383 19.6429 1.05879 19.4171 0.656925 19.0152C0.255062 18.6134 0.0292969 18.0683 0.0292969 17.5C0.0292969 16.9317 0.255062 16.3866 0.656925 15.9848C1.05879 15.5829 1.60383 15.3571 2.17215 15.3571H6.5093C6.86355 15.3568 7.21234 15.4444 7.52447 15.6119C7.8366 15.7794 8.10232 16.0218 8.29787 16.3171L12.2264 22.26L23.4893 3.88C23.6833 3.56349 23.9562 3.30281 24.2813 3.1235C24.6063 2.94419 24.9724 2.85241 25.3436 2.85714Z" fill="#0D9488" fill-opacity="0.2"/>
</svg>
