<svg width="32" height="32" viewBox="0 0 32 32" fill="none" xmlns="http://www.w3.org/2000/svg">
<path d="M15.9987 17.3333C15.5928 17.3286 15.1951 17.4483 14.8593 17.6764C14.5235 17.9045 14.2656 18.23 14.1203 18.6091C13.9751 18.9882 13.9494 19.4026 14.0469 19.7967C14.1443 20.1908 14.3602 20.5456 14.6654 20.8133V22.6667C14.6654 23.0203 14.8058 23.3594 15.0559 23.6095C15.3059 23.8595 15.6451 24 15.9987 24C16.3523 24 16.6915 23.8595 16.9415 23.6095C17.1916 23.3594 17.332 23.0203 17.332 22.6667V20.8133C17.6372 20.5456 17.8531 20.1908 17.9505 19.7967C18.0479 19.4026 18.0223 18.9882 17.8771 18.6091C17.7318 18.23 17.4739 17.9045 17.1381 17.6764C16.8023 17.4483 16.4046 17.3286 15.9987 17.3333ZM22.6654 12V9.33332C22.6654 7.56521 21.963 5.86952 20.7127 4.61928C19.4625 3.36904 17.7668 2.66666 15.9987 2.66666C14.2306 2.66666 12.5349 3.36904 11.2847 4.61928C10.0344 5.86952 9.33203 7.56521 9.33203 9.33332V12C8.27117 12 7.25375 12.4214 6.5036 13.1716C5.75346 13.9217 5.33203 14.9391 5.33203 16V25.3333C5.33203 26.3942 5.75346 27.4116 6.5036 28.1618C7.25375 28.9119 8.27117 29.3333 9.33203 29.3333H22.6654C23.7262 29.3333 24.7436 28.9119 25.4938 28.1618C26.2439 27.4116 26.6654 26.3942 26.6654 25.3333V16C26.6654 14.9391 26.2439 13.9217 25.4938 13.1716C24.7436 12.4214 23.7262 12 22.6654 12ZM11.9987 9.33332C11.9987 8.27246 12.4201 7.25504 13.1703 6.5049C13.9204 5.75475 14.9378 5.33332 15.9987 5.33332C17.0596 5.33332 18.077 5.75475 18.8271 6.5049C19.5773 7.25504 19.9987 8.27246 19.9987 9.33332V12H11.9987V9.33332ZM23.9987 25.3333C23.9987 25.6869 23.8582 26.0261 23.6082 26.2761C23.3581 26.5262 23.019 26.6667 22.6654 26.6667H9.33203C8.97841 26.6667 8.63927 26.5262 8.38922 26.2761C8.13917 26.0261 7.9987 25.6869 7.9987 25.3333V16C7.9987 15.6464 8.13917 15.3072 8.38922 15.0572C8.63927 14.8071 8.97841 14.6667 9.33203 14.6667H22.6654C23.019 14.6667 23.3581 14.8071 23.6082 15.0572C23.8582 15.3072 23.9987 15.6464 23.9987 16V25.3333Z" fill="#2563EB"/>
</svg>
