<svg width="50" height="50" viewBox="0 0 50 50" fill="none" xmlns="http://www.w3.org/2000/svg">
<path opacity="0.5" d="M16.6654 22.9167C16.1128 22.9167 15.5829 22.6972 15.1922 22.3065C14.8015 21.9158 14.582 21.3859 14.582 20.8334V14.5834C14.5828 12.5244 15.1935 10.5118 16.3371 8.79958C17.4806 7.08737 19.1057 5.75229 21.0074 4.96285C22.909 4.17341 25.0018 3.96499 27.0218 4.36389C29.0417 4.76279 30.8983 5.75114 32.357 7.20419C33.6674 8.53028 34.6057 10.1778 35.0779 11.9813C35.1965 12.5084 35.1058 13.0609 34.8248 13.5224C34.5438 13.9838 34.0945 14.3181 33.5717 14.4546C33.049 14.5911 32.4937 14.5191 32.0229 14.254C31.5522 13.9888 31.2029 13.5512 31.0487 13.0334L31.0445 13.0188C30.7573 11.9353 30.1929 10.9452 29.407 10.1459C28.5305 9.27652 27.4163 8.68602 26.2048 8.44876C24.9933 8.21151 23.7387 8.3381 22.599 8.8126C21.4593 9.2871 20.4856 10.0883 19.8004 11.1152C19.1152 12.1421 18.7493 13.3488 18.7487 14.5834V20.8334C18.7487 21.3859 18.5292 21.9158 18.1385 22.3065C17.7478 22.6972 17.2179 22.9167 16.6654 22.9167ZM24.9987 37.5C24.4462 37.5 23.9163 37.2805 23.5256 36.8898C23.1349 36.4991 22.9154 35.9692 22.9154 35.4167V29.1667C22.9154 28.6142 23.1349 28.0843 23.5256 27.6936C23.9163 27.3029 24.4462 27.0834 24.9987 27.0834C25.5512 27.0834 26.0811 27.3029 26.4718 27.6936C26.8625 28.0843 27.082 28.6142 27.082 29.1667V35.4167C27.082 35.9692 26.8625 36.4991 26.4718 36.8898C26.0811 37.2805 25.5512 37.5 24.9987 37.5Z" fill="#2563EB"/>
<path d="M35.4154 18.75H14.582C12.9244 18.75 11.3347 19.4085 10.1626 20.5806C8.99051 21.7527 8.33203 23.3424 8.33203 25V39.5833C8.33203 41.2409 8.99051 42.8306 10.1626 44.0028C11.3347 45.1749 12.9244 45.8333 14.582 45.8333H35.4154C37.073 45.8333 38.6627 45.1749 39.8348 44.0028C41.0069 42.8306 41.6654 41.2409 41.6654 39.5833V25C41.6654 23.3424 41.0069 21.7527 39.8348 20.5806C38.6627 19.4085 37.073 18.75 35.4154 18.75ZM27.082 35.4167C27.082 35.9692 26.8625 36.4991 26.4718 36.8898C26.0811 37.2805 25.5512 37.5 24.9987 37.5C24.4462 37.5 23.9163 37.2805 23.5256 36.8898C23.1349 36.4991 22.9154 35.9692 22.9154 35.4167V29.1667C22.9154 28.6141 23.1349 28.0842 23.5256 27.6935C23.9163 27.3028 24.4462 27.0833 24.9987 27.0833C25.5512 27.0833 26.0811 27.3028 26.4718 27.6935C26.8625 28.0842 27.082 28.6141 27.082 29.1667V35.4167Z" fill="#2563EB"/>
</svg>
