<svg width="20" height="20" viewBox="0 0 20 20" fill="none" xmlns="http://www.w3.org/2000/svg">
<path fill-rule="evenodd" clip-rule="evenodd" d="M10.5013 9.58583L13.7438 12.8283L13.0371 13.5358L9.5013 10V5H10.5013V9.58583ZM10.0013 18.3333C5.3988 18.3333 1.66797 14.6025 1.66797 10C1.66797 5.3975 5.3988 1.66666 10.0013 1.66666C14.6038 1.66666 18.3346 5.3975 18.3346 10C18.3346 14.6025 14.6038 18.3333 10.0013 18.3333ZM10.0013 17.3333C11.9462 17.3333 13.8115 16.5607 15.1868 15.1854C16.562 13.8102 17.3346 11.9449 17.3346 10C17.3346 8.05508 16.562 6.18981 15.1868 4.81455C13.8115 3.43928 11.9462 2.66666 10.0013 2.66666C8.05638 2.66666 6.19112 3.43928 4.81585 4.81455C3.44059 6.18981 2.66797 8.05508 2.66797 10C2.66797 11.9449 3.44059 13.8102 4.81585 15.1854C6.19112 16.5607 8.05638 17.3333 10.0013 17.3333Z" fill="#111827" fill-opacity="0.5"/>
</svg>
